M48
; DRILL file {KiCad 9.0.7} date 2026-03-18T21:08:35+0100
; FORMAT={-:-/ absolute / metric / decimal}
; #@! TF.CreationDate,2026-03-18T21:08:35+01:00
; #@! TF.GenerationSoftware,Kicad,Pcbnew,9.0.7
; #@! TF.FileFunction,MixedPlating,1,2
FMAT,2
METRIC
; #@! TA.AperFunction,Plated,PTH,ComponentDrill
T1C0.800
; #@! TA.AperFunction,Plated,PTH,ComponentDrill
T2C1.000
; #@! TA.AperFunction,Plated,PTH,ComponentDrill
T3C1.600
; #@! TA.AperFunction,NonPlated,NPTH,ComponentDrill
T4C3.200
%
G90
G05
T1
X192.659Y-127.381
X192.659Y-129.881
X197.358Y-129.159
X198.12Y-109.824
X198.12Y-111.824
X198.12Y-113.824
X198.12Y-115.824
X207.518Y-129.159
T2
X184.872Y-122.4
X187.412Y-122.4
X189.952Y-122.4
X192.492Y-122.4
T3
X175.514Y-110.744
X175.514Y-115.824
X175.514Y-120.904
X175.514Y-125.984
X175.514Y-136.398
X175.514Y-141.478
T4
X189.611Y-100.076
X189.738Y-148.59
M30
