%TF.GenerationSoftware,KiCad,Pcbnew,9.0.7*%
%TF.CreationDate,2026-03-31T12:01:22+02:00*%
%TF.ProjectId,controle_ventillateur,636f6e74-726f-46c6-955f-76656e74696c,rev?*%
%TF.SameCoordinates,Original*%
%TF.FileFunction,Copper,L2,Bot*%
%TF.FilePolarity,Positive*%
%FSLAX46Y46*%
G04 Gerber Fmt 4.6, Leading zero omitted, Abs format (unit mm)*
G04 Created by KiCad (PCBNEW 9.0.7) date 2026-03-31 12:01:22*
%MOMM*%
%LPD*%
G01*
G04 APERTURE LIST*
G04 Aperture macros list*
%AMRoundRect*
0 Rectangle with rounded corners*
0 $1 Rounding radius*
0 $2 $3 $4 $5 $6 $7 $8 $9 X,Y pos of 4 corners*
0 Add a 4 corners polygon primitive as box body*
4,1,4,$2,$3,$4,$5,$6,$7,$8,$9,$2,$3,0*
0 Add four circle primitives for the rounded corners*
1,1,$1+$1,$2,$3*
1,1,$1+$1,$4,$5*
1,1,$1+$1,$6,$7*
1,1,$1+$1,$8,$9*
0 Add four rect primitives between the rounded corners*
20,1,$1+$1,$2,$3,$4,$5,0*
20,1,$1+$1,$4,$5,$6,$7,0*
20,1,$1+$1,$6,$7,$8,$9,0*
20,1,$1+$1,$8,$9,$2,$3,0*%
G04 Aperture macros list end*
%ADD10C,0.400000*%
%TA.AperFunction,NonConductor*%
%ADD11C,0.400000*%
%TD*%
%TA.AperFunction,ComponentPad*%
%ADD12RoundRect,0.250001X-0.949999X0.949999X-0.949999X-0.949999X0.949999X-0.949999X0.949999X0.949999X0*%
%TD*%
%TA.AperFunction,ComponentPad*%
%ADD13C,2.400000*%
%TD*%
%TA.AperFunction,ComponentPad*%
%ADD14R,1.600000X1.600000*%
%TD*%
%TA.AperFunction,ComponentPad*%
%ADD15C,1.600000*%
%TD*%
%TA.AperFunction,ComponentPad*%
%ADD16R,1.308000X1.308000*%
%TD*%
%TA.AperFunction,ComponentPad*%
%ADD17C,1.308000*%
%TD*%
%TA.AperFunction,ComponentPad*%
%ADD18R,1.508000X1.508000*%
%TD*%
%TA.AperFunction,ComponentPad*%
%ADD19C,1.508000*%
%TD*%
%TA.AperFunction,SMDPad,CuDef*%
%ADD20RoundRect,0.100000X0.712500X0.100000X-0.712500X0.100000X-0.712500X-0.100000X0.712500X-0.100000X0*%
%TD*%
%TA.AperFunction,Conductor*%
%ADD21C,0.400000*%
%TD*%
%TA.AperFunction,Profile*%
%ADD22C,0.050000*%
%TD*%
G04 APERTURE END LIST*
D10*
D11*
X196223918Y-137754295D02*
X195985823Y-137635247D01*
X195985823Y-137635247D02*
X195628680Y-137635247D01*
X195628680Y-137635247D02*
X195271537Y-137754295D01*
X195271537Y-137754295D02*
X195033442Y-137992390D01*
X195033442Y-137992390D02*
X194914395Y-138230485D01*
X194914395Y-138230485D02*
X194795347Y-138706676D01*
X194795347Y-138706676D02*
X194795347Y-139063819D01*
X194795347Y-139063819D02*
X194914395Y-139540009D01*
X194914395Y-139540009D02*
X195033442Y-139778104D01*
X195033442Y-139778104D02*
X195271537Y-140016200D01*
X195271537Y-140016200D02*
X195628680Y-140135247D01*
X195628680Y-140135247D02*
X195866776Y-140135247D01*
X195866776Y-140135247D02*
X196223918Y-140016200D01*
X196223918Y-140016200D02*
X196342966Y-139897152D01*
X196342966Y-139897152D02*
X196342966Y-139063819D01*
X196342966Y-139063819D02*
X195866776Y-139063819D01*
X198604871Y-137635247D02*
X197414395Y-137635247D01*
X197414395Y-137635247D02*
X197295347Y-138825723D01*
X197295347Y-138825723D02*
X197414395Y-138706676D01*
X197414395Y-138706676D02*
X197652490Y-138587628D01*
X197652490Y-138587628D02*
X198247728Y-138587628D01*
X198247728Y-138587628D02*
X198485823Y-138706676D01*
X198485823Y-138706676D02*
X198604871Y-138825723D01*
X198604871Y-138825723D02*
X198723918Y-139063819D01*
X198723918Y-139063819D02*
X198723918Y-139659057D01*
X198723918Y-139659057D02*
X198604871Y-139897152D01*
X198604871Y-139897152D02*
X198485823Y-140016200D01*
X198485823Y-140016200D02*
X198247728Y-140135247D01*
X198247728Y-140135247D02*
X197652490Y-140135247D01*
X197652490Y-140135247D02*
X197414395Y-140016200D01*
X197414395Y-140016200D02*
X197295347Y-139897152D01*
D12*
%TO.P,REF\u002A\u002A,1*%
%TO.N,12v*%
X175514000Y-136398000D03*
D13*
%TO.P,REF\u002A\u002A,2*%
%TO.N,/GND*%
X175514000Y-141478000D03*
%TD*%
D14*
%TO.P,REF\u002A\u002A,1*%
%TO.N,Net-(PS1-+VOUT)*%
X192659000Y-127381000D03*
D15*
%TO.P,REF\u002A\u002A,2*%
%TO.N,/GND*%
X192659000Y-129881000D03*
%TD*%
D16*
%TO.P,Grove,1*%
%TO.N,/GND*%
X198120000Y-115824000D03*
D17*
%TO.P,Grove,2*%
%TO.N,N/C*%
X198120000Y-113824000D03*
%TO.P,Grove,3*%
%TO.N,/SCL*%
X198120000Y-111824000D03*
%TO.P,Grove,4*%
%TO.N,/SDA*%
X198120000Y-109824000D03*
%TD*%
D12*
%TO.P,REF\u002A\u002A,1*%
%TO.N,/TACH*%
X175514000Y-110744000D03*
D13*
%TO.P,REF\u002A\u002A,2*%
%TO.N,/PWM*%
X175514000Y-115824000D03*
%TO.P,REF\u002A\u002A,3*%
%TO.N,12v*%
X175514000Y-120904000D03*
%TO.P,REF\u002A\u002A,4*%
%TO.N,/GND*%
X175514000Y-125984000D03*
%TD*%
D15*
%TO.P,REF\u002A\u002A,*%
%TO.N,Net-(PS1-+VOUT)*%
X197358000Y-129159000D03*
%TO.P,REF\u002A\u002A,1*%
%TO.N,/TACH*%
X207518000Y-129159000D03*
%TD*%
D18*
%TO.P,DC/DC,1*%
%TO.N,/GND*%
X184872000Y-122400000D03*
D19*
%TO.P,DC/DC,2*%
%TO.N,12v*%
X187412000Y-122400000D03*
%TO.P,DC/DC,3*%
%TO.N,/GND*%
X189952000Y-122400000D03*
%TO.P,DC/DC,4*%
%TO.N,Net-(PS1-+VOUT)*%
X192492000Y-122400000D03*
%TD*%
D20*
%TO.P,U7,1,SMDATA*%
%TO.N,/SDA*%
X190580500Y-111547000D03*
%TO.P,U7,2,SMCLK*%
%TO.N,/SCL*%
X190580500Y-112197000D03*
%TO.P,U7,3,VDD*%
%TO.N,Net-(PS1-+VOUT)*%
X190580500Y-112847000D03*
%TO.P,U7,4,GND*%
%TO.N,/GND*%
X190580500Y-113497000D03*
%TO.P,U7,5,PWM*%
%TO.N,/PWM*%
X186355500Y-113497000D03*
%TO.P,U7,6,TACH*%
%TO.N,/TACH*%
X186355500Y-112847000D03*
%TO.P,U7,7,CLK*%
%TO.N,unconnected-(U7-CLK-Pad7)*%
X186355500Y-112197000D03*
%TO.P,U7,8,~{ALERT}*%
%TO.N,unconnected-(U7-~{ALERT}-Pad8)*%
X186355500Y-111547000D03*
%TD*%
D21*
%TO.N,/TACH*%
X183388000Y-112847000D02*
X177617000Y-112847000D01*
X186355500Y-112847000D02*
X183388000Y-112847000D01*
X207518000Y-108204000D02*
X206121000Y-106807000D01*
X184023000Y-108077000D02*
X183769000Y-108331000D01*
X177617000Y-112847000D02*
X175514000Y-110744000D01*
X185293000Y-106807000D02*
X184023000Y-108077000D01*
X184023000Y-108077000D02*
X183388000Y-108712000D01*
X206121000Y-106807000D02*
X185293000Y-106807000D01*
X183388000Y-108712000D02*
X183388000Y-112847000D01*
X207518000Y-129159000D02*
X207518000Y-108204000D01*
%TO.N,/SCL*%
X194056000Y-112197000D02*
X190580500Y-112197000D01*
X198120000Y-111824000D02*
X194429000Y-111824000D01*
X194429000Y-111824000D02*
X194056000Y-112197000D01*
%TO.N,/SDA*%
X191928000Y-109824000D02*
X191770000Y-109982000D01*
X191770000Y-109982000D02*
X191770000Y-110357500D01*
X198120000Y-109824000D02*
X191928000Y-109824000D01*
X191770000Y-110357500D02*
X190580500Y-111547000D01*
%TO.N,/PWM*%
X175514000Y-115824000D02*
X184028500Y-115824000D01*
X184028500Y-115824000D02*
X186355500Y-113497000D01*
%TO.N,Net-(PS1-+VOUT)*%
X194056000Y-117856000D02*
X192532000Y-117856000D01*
X197358000Y-129159000D02*
X197358000Y-121158000D01*
X192532000Y-117856000D02*
X192532000Y-118110000D01*
X192532000Y-118110000D02*
X192492000Y-118150000D01*
X191454292Y-112847000D02*
X192532000Y-113924708D01*
X190580500Y-112847000D02*
X191454292Y-112847000D01*
X192659000Y-122567000D02*
X192492000Y-122400000D01*
X192492000Y-118150000D02*
X192492000Y-122400000D01*
X197358000Y-121158000D02*
X194056000Y-117856000D01*
X192659000Y-127381000D02*
X192659000Y-122567000D01*
X192532000Y-113924708D02*
X192532000Y-117856000D01*
%TO.N,12v*%
X182372000Y-119634000D02*
X187198000Y-119634000D01*
X187452000Y-122360000D02*
X187412000Y-122400000D01*
X181102000Y-120904000D02*
X182372000Y-119634000D01*
X181102000Y-136398000D02*
X187198000Y-130302000D01*
X187198000Y-130302000D02*
X187198000Y-122614000D01*
X175514000Y-120904000D02*
X181102000Y-120904000D01*
X187198000Y-119634000D02*
X187452000Y-119888000D01*
X175514000Y-136398000D02*
X181102000Y-136398000D01*
X187198000Y-122614000D02*
X187412000Y-122400000D01*
X187452000Y-119888000D02*
X187452000Y-122360000D01*
%TD*%
%TA.AperFunction,Conductor*%
%TO.N,/GND*%
G36*
X212040539Y-93992185D02*
G01*
X212086294Y-94044989D01*
X212097500Y-94096500D01*
X212097500Y-154823500D01*
X212077815Y-154890539D01*
X212025011Y-154936294D01*
X211973500Y-154947500D01*
X167502500Y-154947500D01*
X167435461Y-154927815D01*
X167389706Y-154875011D01*
X167378500Y-154823500D01*
X167378500Y-148468711D01*
X187887500Y-148468711D01*
X187887500Y-148711288D01*
X187919161Y-148951785D01*
X187981947Y-149186104D01*
X188074773Y-149410205D01*
X188074776Y-149410212D01*
X188196064Y-149620289D01*
X188196066Y-149620292D01*
X188196067Y-149620293D01*
X188343733Y-149812736D01*
X188343739Y-149812743D01*
X188515256Y-149984260D01*
X188515262Y-149984265D01*
X188707711Y-150131936D01*
X188917788Y-150253224D01*
X189141900Y-150346054D01*
X189376211Y-150408838D01*
X189556586Y-150432584D01*
X189616711Y-150440500D01*
X189616712Y-150440500D01*
X189859289Y-150440500D01*
X189907388Y-150434167D01*
X190099789Y-150408838D01*
X190334100Y-150346054D01*
X190558212Y-150253224D01*
X190768289Y-150131936D01*
X190960738Y-149984265D01*
X191132265Y-149812738D01*
X191279936Y-149620289D01*
X191401224Y-149410212D01*
X191494054Y-149186100D01*
X191556838Y-148951789D01*
X191588500Y-148711288D01*
X191588500Y-148468712D01*
X191556838Y-148228211D01*
X191494054Y-147993900D01*
X191401224Y-147769788D01*
X191279936Y-147559711D01*
X191132265Y-147367262D01*
X191132260Y-147367256D01*
X190960743Y-147195739D01*
X190960736Y-147195733D01*
X190768293Y-147048067D01*
X190768292Y-147048066D01*
X190768289Y-147048064D01*
X190558212Y-146926776D01*
X190558205Y-146926773D01*
X190334104Y-146833947D01*
X190099785Y-146771161D01*
X189859289Y-146739500D01*
X189859288Y-146739500D01*
X189616712Y-146739500D01*
X189616711Y-146739500D01*
X189376214Y-146771161D01*
X189141895Y-146833947D01*
X188917794Y-146926773D01*
X188917785Y-146926777D01*
X188707706Y-147048067D01*
X188515263Y-147195733D01*
X188515256Y-147195739D01*
X188343739Y-147367256D01*
X188343733Y-147367263D01*
X188196067Y-147559706D01*
X188074777Y-147769785D01*
X188074773Y-147769794D01*
X187981947Y-147993895D01*
X187919161Y-148228214D01*
X187887500Y-148468711D01*
X167378500Y-148468711D01*
X167378500Y-141366575D01*
X173814000Y-141366575D01*
X173814000Y-141589424D01*
X173843085Y-141810354D01*
X173843088Y-141810367D01*
X173900763Y-142025618D01*
X173986045Y-142231502D01*
X173986054Y-142231520D01*
X174097464Y-142424491D01*
X174097473Y-142424504D01*
X174148040Y-142490403D01*
X174148043Y-142490403D01*
X174798152Y-141840293D01*
X174805049Y-141856942D01*
X174892599Y-141987970D01*
X175004030Y-142099401D01*
X175135058Y-142186951D01*
X175151705Y-142193846D01*
X174501595Y-142843955D01*
X174501595Y-142843956D01*
X174567507Y-142894533D01*
X174760485Y-143005949D01*
X174760497Y-143005954D01*
X174966381Y-143091236D01*
X175181632Y-143148911D01*
X175181645Y-143148914D01*
X175402575Y-143178000D01*
X175625425Y-143178000D01*
X175846354Y-143148914D01*
X175846367Y-143148911D01*
X176061618Y-143091236D01*
X176267502Y-143005954D01*
X176267514Y-143005949D01*
X176460498Y-142894530D01*
X176526403Y-142843957D01*
X176526404Y-142843956D01*
X175876294Y-142193846D01*
X175892942Y-142186951D01*
X176023970Y-142099401D01*
X176135401Y-141987970D01*
X176222951Y-141856942D01*
X176229846Y-141840294D01*
X176879956Y-142490404D01*
X176879957Y-142490403D01*
X176930530Y-142424498D01*
X177041949Y-142231514D01*
X177041954Y-142231502D01*
X177127236Y-142025618D01*
X177184911Y-141810367D01*
X177184914Y-141810354D01*
X177214000Y-141589424D01*
X177214000Y-141366575D01*
X177184914Y-141145645D01*
X177184911Y-141145632D01*
X177127236Y-140930381D01*
X177091062Y-140843051D01*
X194086224Y-140843051D01*
X199431722Y-140843051D01*
X199431722Y-136926806D01*
X194086224Y-136926806D01*
X194086224Y-140843051D01*
X177091062Y-140843051D01*
X177041954Y-140724497D01*
X177041949Y-140724485D01*
X176930533Y-140531507D01*
X176879956Y-140465595D01*
X176879955Y-140465595D01*
X176229846Y-141115704D01*
X176222951Y-141099058D01*
X176135401Y-140968030D01*
X176023970Y-140856599D01*
X175892942Y-140769049D01*
X175876293Y-140762152D01*
X176526403Y-140112043D01*
X176526403Y-140112040D01*
X176460504Y-140061473D01*
X176460491Y-140061464D01*
X176267520Y-139950054D01*
X176267502Y-139950045D01*
X176061618Y-139864763D01*
X175846367Y-139807088D01*
X175846354Y-139807085D01*
X175625425Y-139778000D01*
X175402575Y-139778000D01*
X175181645Y-139807085D01*
X175181632Y-139807088D01*
X174966381Y-139864763D01*
X174760497Y-139950045D01*
X174760479Y-139950054D01*
X174567511Y-140061462D01*
X174501595Y-140112042D01*
X175151706Y-140762152D01*
X175135058Y-140769049D01*
X175004030Y-140856599D01*
X174892599Y-140968030D01*
X174805049Y-141099058D01*
X174798153Y-141115706D01*
X174148042Y-140465595D01*
X174097462Y-140531511D01*
X173986054Y-140724479D01*
X173986045Y-140724497D01*
X173900763Y-140930381D01*
X173843088Y-141145632D01*
X173843085Y-141145645D01*
X173814000Y-141366575D01*
X167378500Y-141366575D01*
X167378500Y-125872575D01*
X173814000Y-125872575D01*
X173814000Y-126095424D01*
X173843085Y-126316354D01*
X173843088Y-126316367D01*
X173900763Y-126531618D01*
X173986045Y-126737502D01*
X173986054Y-126737520D01*
X174097464Y-126930491D01*
X174097473Y-126930504D01*
X174148040Y-126996403D01*
X174148043Y-126996403D01*
X174798152Y-126346293D01*
X174805049Y-126362942D01*
X174892599Y-126493970D01*
X175004030Y-126605401D01*
X175135058Y-126692951D01*
X175151705Y-126699846D01*
X174501595Y-127349955D01*
X174501595Y-127349956D01*
X174567507Y-127400533D01*
X174760485Y-127511949D01*
X174760497Y-127511954D01*
X174966381Y-127597236D01*
X175181632Y-127654911D01*
X175181645Y-127654914D01*
X175402575Y-127684000D01*
X175625425Y-127684000D01*
X175846354Y-127654914D01*
X175846367Y-127654911D01*
X176061618Y-127597236D01*
X176267502Y-127511954D01*
X176267514Y-127511949D01*
X176460498Y-127400530D01*
X176526403Y-127349957D01*
X176526404Y-127349956D01*
X175876294Y-126699846D01*
X175892942Y-126692951D01*
X176023970Y-126605401D01*
X176135401Y-126493970D01*
X176222951Y-126362942D01*
X176229846Y-126346294D01*
X176879956Y-126996404D01*
X176879957Y-126996403D01*
X176930530Y-126930498D01*
X177041949Y-126737514D01*
X177041954Y-126737502D01*
X177127236Y-126531618D01*
X177184911Y-126316367D01*
X177184914Y-126316354D01*
X177214000Y-126095424D01*
X177214000Y-125872575D01*
X177184914Y-125651645D01*
X177184911Y-125651632D01*
X177127236Y-125436381D01*
X177041954Y-125230497D01*
X177041949Y-125230485D01*
X176930533Y-125037507D01*
X176879956Y-124971595D01*
X176879955Y-124971595D01*
X176229846Y-125621704D01*
X176222951Y-125605058D01*
X176135401Y-125474030D01*
X176023970Y-125362599D01*
X175892942Y-125275049D01*
X175876293Y-125268152D01*
X176526403Y-124618043D01*
X176526403Y-124618040D01*
X176460504Y-124567473D01*
X176460491Y-124567464D01*
X176267520Y-124456054D01*
X176267502Y-124456045D01*
X176061618Y-124370763D01*
X175846367Y-124313088D01*
X175846354Y-124313085D01*
X175625425Y-124284000D01*
X175402575Y-124284000D01*
X175181645Y-124313085D01*
X175181632Y-124313088D01*
X174966381Y-124370763D01*
X174760497Y-124456045D01*
X174760479Y-124456054D01*
X174567511Y-124567462D01*
X174501595Y-124618042D01*
X175151706Y-125268152D01*
X175135058Y-125275049D01*
X175004030Y-125362599D01*
X174892599Y-125474030D01*
X174805049Y-125605058D01*
X174798153Y-125621706D01*
X174148042Y-124971595D01*
X174097462Y-125037511D01*
X173986054Y-125230479D01*
X173986045Y-125230497D01*
X173900763Y-125436381D01*
X173843088Y-125651632D01*
X173843085Y-125651645D01*
X173814000Y-125872575D01*
X167378500Y-125872575D01*
X167378500Y-120792549D01*
X173813500Y-120792549D01*
X173813500Y-121015450D01*
X173813501Y-121015466D01*
X173842594Y-121236452D01*
X173842595Y-121236457D01*
X173842596Y-121236463D01*
X173899319Y-121448157D01*
X173900290Y-121451780D01*
X173900293Y-121451790D01*
X173984098Y-121654112D01*
X173985595Y-121657726D01*
X174097052Y-121850774D01*
X174097057Y-121850780D01*
X174097058Y-121850782D01*
X174232751Y-122027622D01*
X174232757Y-122027629D01*
X174390370Y-122185242D01*
X174390376Y-122185247D01*
X174567226Y-122320948D01*
X174760274Y-122432405D01*
X174840960Y-122465826D01*
X174920411Y-122498736D01*
X174966219Y-122517710D01*
X175181537Y-122575404D01*
X175402543Y-122604500D01*
X175402550Y-122604500D01*
X175625450Y-122604500D01*
X175625457Y-122604500D01*
X175846463Y-122575404D01*
X176061781Y-122517710D01*
X176107600Y-122498731D01*
X176142979Y-122484077D01*
X176187040Y-122465826D01*
X176267726Y-122432405D01*
X176460774Y-122320948D01*
X176637624Y-122185247D01*
X176795247Y-122027624D01*
X176930948Y-121850774D01*
X177037340Y-121666499D01*
X177087908Y-121618284D01*
X177144727Y-121604500D01*
X181170996Y-121604500D01*
X181280347Y-121582748D01*
X181306328Y-121577580D01*
X181433811Y-121524775D01*
X181548543Y-121448114D01*
X182625838Y-120370819D01*
X182687161Y-120337334D01*
X182713519Y-120334500D01*
X186627500Y-120334500D01*
X186694539Y-120354185D01*
X186740294Y-120406989D01*
X186751500Y-120458500D01*
X186751500Y-121266053D01*
X186731815Y-121333092D01*
X186700385Y-121366371D01*
X186594751Y-121443118D01*
X186594745Y-121443123D01*
X186455115Y-121582753D01*
X186350318Y-121726997D01*
X186294989Y-121769663D01*
X186225375Y-121775642D01*
X186163580Y-121743037D01*
X186129223Y-121682198D01*
X186126000Y-121654112D01*
X186126000Y-121598172D01*
X186125999Y-121598155D01*
X186119598Y-121538627D01*
X186119596Y-121538620D01*
X186069354Y-121403913D01*
X186069350Y-121403906D01*
X185983190Y-121288812D01*
X185983187Y-121288809D01*
X185868093Y-121202649D01*
X185868086Y-121202645D01*
X185733379Y-121152403D01*
X185733372Y-121152401D01*
X185673844Y-121146000D01*
X185122000Y-121146000D01*
X185122000Y-121966988D01*
X185064993Y-121934075D01*
X184937826Y-121900000D01*
X184806174Y-121900000D01*
X184679007Y-121934075D01*
X184622000Y-121966988D01*
X184622000Y-121146000D01*
X184070155Y-121146000D01*
X184010627Y-121152401D01*
X184010620Y-121152403D01*
X183875913Y-121202645D01*
X183875906Y-121202649D01*
X183760812Y-121288809D01*
X183760809Y-121288812D01*
X183674649Y-121403906D01*
X183674645Y-121403913D01*
X183624403Y-121538620D01*
X183624401Y-121538627D01*
X183618000Y-121598155D01*
X183618000Y-122150000D01*
X184438988Y-122150000D01*
X184406075Y-122207007D01*
X184372000Y-122334174D01*
X184372000Y-122465826D01*
X184406075Y-122592993D01*
X184438988Y-122650000D01*
X183618000Y-122650000D01*
X183618000Y-123201844D01*
X183624401Y-123261372D01*
X183624403Y-123261379D01*
X183674645Y-123396086D01*
X183674649Y-123396093D01*
X183760809Y-123511187D01*
X183760812Y-123511190D01*
X183875906Y-123597350D01*
X183875913Y-123597354D01*
X184010620Y-123647596D01*
X184010627Y-123647598D01*
X184070155Y-123653999D01*
X184070172Y-123654000D01*
X184622000Y-123654000D01*
X184622000Y-122833012D01*
X184679007Y-122865925D01*
X184806174Y-122900000D01*
X184937826Y-122900000D01*
X185064993Y-122865925D01*
X185122000Y-122833012D01*
X185122000Y-123654000D01*
X185673828Y-123654000D01*
X185673844Y-123653999D01*
X185733372Y-123647598D01*
X185733379Y-123647596D01*
X185868086Y-123597354D01*
X185868093Y-123597350D01*
X185983187Y-123511190D01*
X185983190Y-123511187D01*
X186069350Y-123396093D01*
X186069354Y-123396086D01*
X186119596Y-123261379D01*
X186119598Y-123261372D01*
X186125999Y-123201844D01*
X186126000Y-123201827D01*
X186126000Y-123145887D01*
X186134651Y-123116424D01*
X186141190Y-123086419D01*
X186144405Y-123083206D01*
X186145685Y-123078848D01*
X186168882Y-123058747D01*
X186190614Y-123037032D01*
X186195056Y-123036067D01*
X186198489Y-123033093D01*
X186228877Y-123028723D01*
X186258893Y-123022206D01*
X186263149Y-123023795D01*
X186267647Y-123023149D01*
X186295579Y-123035905D01*
X186324348Y-123046648D01*
X186328640Y-123051003D01*
X186331203Y-123052174D01*
X186349295Y-123071614D01*
X186349804Y-123072294D01*
X186455121Y-123217252D01*
X186467469Y-123229600D01*
X186472795Y-123236720D01*
X186482012Y-123261462D01*
X186494666Y-123284635D01*
X186496296Y-123299803D01*
X186497187Y-123302193D01*
X186496763Y-123304138D01*
X186497500Y-123310993D01*
X186497500Y-129960481D01*
X186477815Y-130027520D01*
X186461181Y-130048162D01*
X180848162Y-135661181D01*
X180786839Y-135694666D01*
X180760481Y-135697500D01*
X177338500Y-135697500D01*
X177271461Y-135677815D01*
X177225706Y-135625011D01*
X177214500Y-135573500D01*
X177214500Y-135397997D01*
X177214499Y-135397984D01*
X177203999Y-135295204D01*
X177203999Y-135295203D01*
X177148814Y-135128666D01*
X177056711Y-134979345D01*
X176932655Y-134855289D01*
X176932651Y-134855286D01*
X176783337Y-134763187D01*
X176783335Y-134763186D01*
X176700065Y-134735593D01*
X176616797Y-134708001D01*
X176616795Y-134708000D01*
X176514015Y-134697500D01*
X176514008Y-134697500D01*
X174513992Y-134697500D01*
X174513984Y-134697500D01*
X174411204Y-134708000D01*
X174411203Y-134708001D01*
X174244664Y-134763186D01*
X174244662Y-134763187D01*
X174095348Y-134855286D01*
X174095344Y-134855289D01*
X173971289Y-134979344D01*
X173971286Y-134979348D01*
X173879187Y-135128662D01*
X173879186Y-135128664D01*
X173824001Y-135295203D01*
X173824000Y-135295204D01*
X173813500Y-135397984D01*
X173813500Y-137398015D01*
X173824000Y-137500795D01*
X173824001Y-137500796D01*
X173879186Y-137667335D01*
X173879187Y-137667337D01*
X173971286Y-137816651D01*
X173971289Y-137816655D01*
X174095344Y-137940710D01*
X174095348Y-137940713D01*
X174244662Y-138032812D01*
X174244664Y-138032813D01*
X174244666Y-138032814D01*
X174411203Y-138087999D01*
X174513992Y-138098500D01*
X174513997Y-138098500D01*
X176514003Y-138098500D01*
X176514008Y-138098500D01*
X176616797Y-138087999D01*
X176783334Y-138032814D01*
X176932655Y-137940711D01*
X177056711Y-137816655D01*
X177148814Y-137667334D01*
X177203999Y-137500797D01*
X177214500Y-137398008D01*
X177214500Y-137222500D01*
X177234185Y-137155461D01*
X177286989Y-137109706D01*
X177338500Y-137098500D01*
X181170996Y-137098500D01*
X181262040Y-137080389D01*
X181306328Y-137071580D01*
X181370069Y-137045177D01*
X181433807Y-137018777D01*
X181433808Y-137018776D01*
X181433811Y-137018775D01*
X181548543Y-136942114D01*
X181563851Y-136926806D01*
X181702895Y-136787763D01*
X187665124Y-130825534D01*
X187742111Y-130748546D01*
X187742112Y-130748545D01*
X187742114Y-130748543D01*
X187818775Y-130633811D01*
X187871580Y-130506328D01*
X187887265Y-130427477D01*
X187898500Y-130370996D01*
X187898500Y-123636061D01*
X187918185Y-123569022D01*
X187966204Y-123525576D01*
X188069501Y-123472944D01*
X188175288Y-123396086D01*
X188229246Y-123356884D01*
X188229248Y-123356881D01*
X188229252Y-123356879D01*
X188368879Y-123217252D01*
X188368881Y-123217248D01*
X188368884Y-123217246D01*
X188466268Y-123083206D01*
X188484944Y-123057501D01*
X188571797Y-122887043D01*
X188619768Y-122836250D01*
X188687589Y-122819455D01*
X188753724Y-122841992D01*
X188792763Y-122887045D01*
X188879481Y-123057236D01*
X188905457Y-123092988D01*
X188905457Y-123092989D01*
X189469037Y-122529409D01*
X189486075Y-122592993D01*
X189551901Y-122707007D01*
X189644993Y-122800099D01*
X189759007Y-122865925D01*
X189822590Y-122882962D01*
X189259009Y-123446541D01*
X189259010Y-123446542D01*
X189294755Y-123472512D01*
X189294768Y-123472520D01*
X189470626Y-123562126D01*
X189658353Y-123623123D01*
X189853303Y-123654000D01*
X190050697Y-123654000D01*
X190245646Y-123623123D01*
X190433373Y-123562126D01*
X190609241Y-123472516D01*
X190644988Y-123446543D01*
X190644988Y-123446541D01*
X190081410Y-122882962D01*
X190144993Y-122865925D01*
X190259007Y-122800099D01*
X190352099Y-122707007D01*
X190417925Y-122592993D01*
X190434962Y-122529409D01*
X190998541Y-123092988D01*
X190998543Y-123092988D01*
X191024516Y-123057241D01*
X191111235Y-122887046D01*
X191159210Y-122836250D01*
X191227031Y-122819455D01*
X191293165Y-122841992D01*
X191332202Y-122887042D01*
X191413526Y-123046648D01*
X191419058Y-123057505D01*
X191535115Y-123217246D01*
X191674753Y-123356884D01*
X191834494Y-123472941D01*
X191834496Y-123472942D01*
X191834499Y-123472944D01*
X191890795Y-123501628D01*
X191941591Y-123549602D01*
X191958500Y-123612113D01*
X191958500Y-125956500D01*
X191938815Y-126023539D01*
X191886011Y-126069294D01*
X191834505Y-126080500D01*
X191811132Y-126080500D01*
X191811123Y-126080501D01*
X191751516Y-126086908D01*
X191616671Y-126137202D01*
X191616664Y-126137206D01*
X191501455Y-126223452D01*
X191501452Y-126223455D01*
X191415206Y-126338664D01*
X191415202Y-126338671D01*
X191364908Y-126473517D01*
X191358662Y-126531618D01*
X191358501Y-126533123D01*
X191358500Y-126533135D01*
X191358500Y-128228870D01*
X191358501Y-128228876D01*
X191364908Y-128288483D01*
X191415202Y-128423328D01*
X191415206Y-128423335D01*
X191501452Y-128538544D01*
X191501455Y-128538547D01*
X191616664Y-128624793D01*
X191616671Y-128624797D01*
X191661618Y-128641561D01*
X191751517Y-128675091D01*
X191811127Y-128681500D01*
X191811153Y-128681499D01*
X191814453Y-128681678D01*
X191814365Y-128683308D01*
X191875238Y-128701067D01*
X191921084Y-128753791D01*
X191928804Y-128797251D01*
X192612554Y-129481000D01*
X192606339Y-129481000D01*
X192504606Y-129508259D01*
X192413394Y-129560920D01*
X192338920Y-129635394D01*
X192286259Y-129726606D01*
X192259000Y-129828339D01*
X192259000Y-129834553D01*
X191579524Y-129155077D01*
X191579523Y-129155077D01*
X191547143Y-129199644D01*
X191454244Y-129381968D01*
X191391009Y-129576582D01*
X191359000Y-129778682D01*
X191359000Y-129983317D01*
X191391009Y-130185417D01*
X191454244Y-130380031D01*
X191547141Y-130562350D01*
X191547147Y-130562359D01*
X191579523Y-130606921D01*
X191579524Y-130606922D01*
X192259000Y-129927446D01*
X192259000Y-129933661D01*
X192286259Y-130035394D01*
X192338920Y-130126606D01*
X192413394Y-130201080D01*
X192504606Y-130253741D01*
X192606339Y-130281000D01*
X192612553Y-130281000D01*
X191933076Y-130960474D01*
X191977650Y-130992859D01*
X192159968Y-131085755D01*
X192354582Y-131148990D01*
X192556683Y-131181000D01*
X192761317Y-131181000D01*
X192963417Y-131148990D01*
X193158031Y-131085755D01*
X193340349Y-130992859D01*
X193384921Y-130960474D01*
X192705447Y-130281000D01*
X192711661Y-130281000D01*
X192813394Y-130253741D01*
X192904606Y-130201080D01*
X192979080Y-130126606D01*
X193031741Y-130035394D01*
X193059000Y-129933661D01*
X193059000Y-129927447D01*
X193738474Y-130606921D01*
X193770859Y-130562349D01*
X193863755Y-130380031D01*
X193926990Y-130185417D01*
X193959000Y-129983317D01*
X193959000Y-129778682D01*
X193926990Y-129576582D01*
X193863755Y-129381968D01*
X193770859Y-129199650D01*
X193738474Y-129155077D01*
X193738474Y-129155076D01*
X193059000Y-129834551D01*
X193059000Y-129828339D01*
X193031741Y-129726606D01*
X192979080Y-129635394D01*
X192904606Y-129560920D01*
X192813394Y-129508259D01*
X192711661Y-129481000D01*
X192705446Y-129481000D01*
X193389931Y-128796515D01*
X193400364Y-128746852D01*
X193449415Y-128697094D01*
X193503637Y-128683048D01*
X193503576Y-128681900D01*
X193503571Y-128681854D01*
X193503573Y-128681853D01*
X193503564Y-128681676D01*
X193506857Y-128681499D01*
X193506872Y-128681499D01*
X193566483Y-128675091D01*
X193701331Y-128624796D01*
X193816546Y-128538546D01*
X193902796Y-128423331D01*
X193953091Y-128288483D01*
X193959500Y-128228873D01*
X193959499Y-126533128D01*
X193953091Y-126473517D01*
X193911849Y-126362942D01*
X193902797Y-126338671D01*
X193902793Y-126338664D01*
X193816547Y-126223455D01*
X193816544Y-126223452D01*
X193701335Y-126137206D01*
X193701328Y-126137202D01*
X193566482Y-126086908D01*
X193566483Y-126086908D01*
X193506883Y-126080501D01*
X193506881Y-126080500D01*
X193506873Y-126080500D01*
X193506865Y-126080500D01*
X193483500Y-126080500D01*
X193416461Y-126060815D01*
X193370706Y-126008011D01*
X193359500Y-125956500D01*
X193359500Y-123357993D01*
X193379185Y-123290954D01*
X193395819Y-123270312D01*
X193406500Y-123259631D01*
X193448879Y-123217252D01*
X193448881Y-123217248D01*
X193448884Y-123217246D01*
X193522134Y-123116424D01*
X193564944Y-123057501D01*
X193654591Y-122881561D01*
X193715610Y-122693763D01*
X193746500Y-122498736D01*
X193746500Y-122301263D01*
X193715610Y-122106236D01*
X193690067Y-122027624D01*
X193654591Y-121918439D01*
X193564944Y-121742499D01*
X193539159Y-121707009D01*
X193448884Y-121582753D01*
X193309250Y-121443119D01*
X193309245Y-121443115D01*
X193243615Y-121395432D01*
X193200949Y-121340102D01*
X193192500Y-121295114D01*
X193192500Y-118680500D01*
X193212185Y-118613461D01*
X193264989Y-118567706D01*
X193316500Y-118556500D01*
X193714481Y-118556500D01*
X193781520Y-118576185D01*
X193802162Y-118592819D01*
X196621181Y-121411838D01*
X196654666Y-121473161D01*
X196657500Y-121499519D01*
X196657500Y-127997255D01*
X196637815Y-128064294D01*
X196606385Y-128097573D01*
X196510787Y-128167028D01*
X196510782Y-128167032D01*
X196366028Y-128311786D01*
X196245715Y-128477386D01*
X196152781Y-128659776D01*
X196089522Y-128854465D01*
X196057500Y-129056648D01*
X196057500Y-129261351D01*
X196089522Y-129463534D01*
X196152781Y-129658223D01*
X196245715Y-129840613D01*
X196366028Y-130006213D01*
X196510786Y-130150971D01*
X196652240Y-130253741D01*
X196676390Y-130271287D01*
X196792607Y-130330503D01*
X196858776Y-130364218D01*
X196858778Y-130364218D01*
X196858781Y-130364220D01*
X196963137Y-130398127D01*
X197053465Y-130427477D01*
X197154557Y-130443488D01*
X197255648Y-130459500D01*
X197255649Y-130459500D01*
X197460351Y-130459500D01*
X197460352Y-130459500D01*
X197662534Y-130427477D01*
X197857219Y-130364220D01*
X198039610Y-130271287D01*
X198157801Y-130185417D01*
X198205213Y-130150971D01*
X198205215Y-130150968D01*
X198205219Y-130150966D01*
X198349966Y-130006219D01*
X198349968Y-130006215D01*
X198349971Y-130006213D01*
X198440942Y-129881000D01*
X198470287Y-129840610D01*
X198563220Y-129658219D01*
X198626477Y-129463534D01*
X198658500Y-129261352D01*
X198658500Y-129056648D01*
X198626477Y-128854466D01*
X198563220Y-128659781D01*
X198563218Y-128659778D01*
X198563218Y-128659776D01*
X198501448Y-128538547D01*
X198470287Y-128477390D01*
X198431014Y-128423335D01*
X198349971Y-128311786D01*
X198205217Y-128167032D01*
X198205212Y-128167028D01*
X198109615Y-128097573D01*
X198066949Y-128042243D01*
X198058500Y-127997255D01*
X198058500Y-121089004D01*
X198031581Y-120953677D01*
X198031580Y-120953676D01*
X198031580Y-120953672D01*
X197978775Y-120826189D01*
X197978773Y-120826186D01*
X197962377Y-120801647D01*
X197902115Y-120711458D01*
X197902109Y-120711451D01*
X194502545Y-117311887D01*
X194387807Y-117235222D01*
X194260332Y-117182421D01*
X194260322Y-117182418D01*
X194124996Y-117155500D01*
X194124994Y-117155500D01*
X194124993Y-117155500D01*
X193356500Y-117155500D01*
X193289461Y-117135815D01*
X193243706Y-117083011D01*
X193232500Y-117031500D01*
X193232500Y-113855712D01*
X193232499Y-113855710D01*
X193205581Y-113720386D01*
X193205580Y-113720382D01*
X193205580Y-113720380D01*
X193197688Y-113701328D01*
X193195895Y-113697000D01*
X193152778Y-113592904D01*
X193152777Y-113592903D01*
X193152775Y-113592897D01*
X193076114Y-113478165D01*
X193076112Y-113478162D01*
X193076111Y-113478161D01*
X192707130Y-113109181D01*
X192673645Y-113047858D01*
X192678629Y-112978167D01*
X192720500Y-112922233D01*
X192785965Y-112897816D01*
X192794811Y-112897500D01*
X194124996Y-112897500D01*
X194216040Y-112879389D01*
X194260328Y-112870580D01*
X194324069Y-112844177D01*
X194387807Y-112817777D01*
X194387808Y-112817776D01*
X194387811Y-112817775D01*
X194502543Y-112741114D01*
X194682838Y-112560819D01*
X194744161Y-112527334D01*
X194770519Y-112524500D01*
X197138722Y-112524500D01*
X197205761Y-112544185D01*
X197235921Y-112572667D01*
X197236233Y-112572401D01*
X197238710Y-112575301D01*
X197239035Y-112575609D01*
X197239397Y-112576106D01*
X197239399Y-112576108D01*
X197367894Y-112704603D01*
X197394155Y-112723683D01*
X197436820Y-112779014D01*
X197442798Y-112848627D01*
X197410191Y-112910422D01*
X197394155Y-112924317D01*
X197367894Y-112943396D01*
X197239399Y-113071891D01*
X197239399Y-113071892D01*
X197239397Y-113071894D01*
X197212306Y-113109181D01*
X197132583Y-113218909D01*
X197050083Y-113380825D01*
X197050081Y-113380828D01*
X196993928Y-113553649D01*
X196993928Y-113553652D01*
X196965500Y-113733139D01*
X196965500Y-113914860D01*
X196993928Y-114094347D01*
X196993928Y-114094350D01*
X197050081Y-114267171D01*
X197050083Y-114267174D01*
X197132583Y-114429090D01*
X197215164Y-114542753D01*
X197232933Y-114567209D01*
X197256413Y-114633016D01*
X197240588Y-114701070D01*
X197206927Y-114739361D01*
X197108809Y-114812812D01*
X197022649Y-114927906D01*
X197022645Y-114927913D01*
X196972403Y-115062620D01*
X196972401Y-115062627D01*
X196966000Y-115122155D01*
X196966000Y-115574000D01*
X197804314Y-115574000D01*
X197799920Y-115578394D01*
X197747259Y-115669606D01*
X197720000Y-115771339D01*
X197720000Y-115876661D01*
X197747259Y-115978394D01*
X197799920Y-116069606D01*
X197804314Y-116074000D01*
X196966000Y-116074000D01*
X196966000Y-116525844D01*
X196972401Y-116585372D01*
X196972403Y-116585379D01*
X197022645Y-116720086D01*
X197022649Y-116720093D01*
X197108809Y-116835187D01*
X197108812Y-116835190D01*
X197223906Y-116921350D01*
X197223913Y-116921354D01*
X197358620Y-116971596D01*
X197358627Y-116971598D01*
X197418155Y-116977999D01*
X197418172Y-116978000D01*
X197870000Y-116978000D01*
X197870000Y-116139686D01*
X197874394Y-116144080D01*
X197965606Y-116196741D01*
X198067339Y-116224000D01*
X198172661Y-116224000D01*
X198274394Y-116196741D01*
X198365606Y-116144080D01*
X198370000Y-116139686D01*
X198370000Y-116978000D01*
X198821828Y-116978000D01*
X198821844Y-116977999D01*
X198881372Y-116971598D01*
X198881379Y-116971596D01*
X199016086Y-116921354D01*
X199016093Y-116921350D01*
X199131187Y-116835190D01*
X199131190Y-116835187D01*
X199217350Y-116720093D01*
X199217354Y-116720086D01*
X199267596Y-116585379D01*
X199267598Y-116585372D01*
X199273999Y-116525844D01*
X199274000Y-116525827D01*
X199274000Y-116074000D01*
X198435686Y-116074000D01*
X198440080Y-116069606D01*
X198492741Y-115978394D01*
X198520000Y-115876661D01*
X198520000Y-115771339D01*
X198492741Y-115669606D01*
X198440080Y-115578394D01*
X198435686Y-115574000D01*
X199274000Y-115574000D01*
X199274000Y-115122172D01*
X199273999Y-115122155D01*
X199267598Y-115062627D01*
X199267596Y-115062620D01*
X199217354Y-114927913D01*
X199217350Y-114927906D01*
X199131190Y-114812812D01*
X199033072Y-114739360D01*
X198991202Y-114683426D01*
X198986218Y-114613734D01*
X199007067Y-114567209D01*
X199107417Y-114429090D01*
X199189917Y-114267174D01*
X199212718Y-114196999D01*
X199246071Y-114094350D01*
X199246071Y-114094349D01*
X199246072Y-114094346D01*
X199274500Y-113914861D01*
X199274500Y-113733139D01*
X199246072Y-113553654D01*
X199246071Y-113553650D01*
X199246071Y-113553649D01*
X199189918Y-113380828D01*
X199189916Y-113380825D01*
X199162664Y-113327338D01*
X199107417Y-113218910D01*
X199000603Y-113071894D01*
X198872106Y-112943397D01*
X198845845Y-112924317D01*
X198803180Y-112868988D01*
X198797201Y-112799375D01*
X198829807Y-112737580D01*
X198845846Y-112723682D01*
X198872106Y-112704603D01*
X199000603Y-112576106D01*
X199107417Y-112429090D01*
X199189917Y-112267174D01*
X199223877Y-112162655D01*
X199246071Y-112094350D01*
X199246071Y-112094349D01*
X199246072Y-112094346D01*
X199274500Y-111914861D01*
X199274500Y-111733139D01*
X199246072Y-111553654D01*
X199246071Y-111553650D01*
X199246071Y-111553649D01*
X199189918Y-111380828D01*
X199189916Y-111380825D01*
X199143761Y-111290239D01*
X199107417Y-111218910D01*
X199000603Y-111071894D01*
X198872106Y-110943397D01*
X198845845Y-110924317D01*
X198803180Y-110868988D01*
X198797201Y-110799375D01*
X198829807Y-110737580D01*
X198845846Y-110723682D01*
X198872106Y-110704603D01*
X199000603Y-110576106D01*
X199107417Y-110429090D01*
X199189917Y-110267174D01*
X199189918Y-110267171D01*
X199246071Y-110094350D01*
X199246071Y-110094349D01*
X199246072Y-110094346D01*
X199274500Y-109914861D01*
X199274500Y-109733139D01*
X199246072Y-109553654D01*
X199246071Y-109553650D01*
X199246071Y-109553649D01*
X199189918Y-109380828D01*
X199189916Y-109380825D01*
X199161650Y-109325348D01*
X199107417Y-109218910D01*
X199000603Y-109071894D01*
X198872106Y-108943397D01*
X198725090Y-108836583D01*
X198563174Y-108754083D01*
X198563171Y-108754081D01*
X198390348Y-108697928D01*
X198270689Y-108678976D01*
X198210861Y-108669500D01*
X198029139Y-108669500D01*
X197969310Y-108678976D01*
X197849652Y-108697928D01*
X197849649Y-108697928D01*
X197676828Y-108754081D01*
X197676825Y-108754083D01*
X197514909Y-108836583D01*
X197431030Y-108897525D01*
X197367894Y-108943397D01*
X197367892Y-108943399D01*
X197367891Y-108943399D01*
X197239399Y-109071891D01*
X197239399Y-109071892D01*
X197239397Y-109071894D01*
X197239036Y-109072390D01*
X197238852Y-109072532D01*
X197236233Y-109075599D01*
X197235588Y-109075048D01*
X197183706Y-109115053D01*
X197138722Y-109123500D01*
X191859004Y-109123500D01*
X191723677Y-109150418D01*
X191723667Y-109150421D01*
X191596192Y-109203222D01*
X191481454Y-109279887D01*
X191225887Y-109535454D01*
X191149222Y-109650192D01*
X191096421Y-109777667D01*
X191096418Y-109777679D01*
X191072728Y-109896778D01*
X191069500Y-109913005D01*
X191069500Y-110015980D01*
X191049815Y-110083019D01*
X191033181Y-110103661D01*
X190326660Y-110810181D01*
X190265337Y-110843666D01*
X190238979Y-110846500D01*
X189828636Y-110846500D01*
X189711246Y-110861953D01*
X189711237Y-110861956D01*
X189565160Y-110922463D01*
X189439718Y-111018718D01*
X189343463Y-111144160D01*
X189282956Y-111290237D01*
X189282955Y-111290239D01*
X189267500Y-111407638D01*
X189267500Y-111686363D01*
X189282953Y-111803753D01*
X189282957Y-111803765D01*
X189291566Y-111824550D01*
X189299033Y-111894019D01*
X189291566Y-111919450D01*
X189282957Y-111940234D01*
X189282955Y-111940239D01*
X189267500Y-112057638D01*
X189267500Y-112336363D01*
X189282953Y-112453753D01*
X189282957Y-112453765D01*
X189291566Y-112474550D01*
X189299033Y-112544019D01*
X189291566Y-112569450D01*
X189282957Y-112590234D01*
X189282955Y-112590239D01*
X189267500Y-112707638D01*
X189267500Y-112986363D01*
X189282953Y-113103753D01*
X189282956Y-113103762D01*
X189291837Y-113125203D01*
X189299304Y-113194673D01*
X189291838Y-113220103D01*
X189283443Y-113240370D01*
X189275987Y-113297000D01*
X189318500Y-113297000D01*
X189385539Y-113316685D01*
X189399761Y-113327338D01*
X189409239Y-113335561D01*
X189439718Y-113375282D01*
X189565159Y-113471536D01*
X189566701Y-113472175D01*
X189574958Y-113479338D01*
X189591892Y-113505724D01*
X189610386Y-113531052D01*
X189610615Y-113534896D01*
X189612696Y-113538139D01*
X189612676Y-113569496D01*
X189614541Y-113600798D01*
X189612654Y-113604157D01*
X189612652Y-113608009D01*
X189595689Y-113634367D01*
X189580329Y-113661719D01*
X189576924Y-113663525D01*
X189574841Y-113666763D01*
X189546313Y-113679770D01*
X189518611Y-113694471D01*
X189512770Y-113695063D01*
X189511268Y-113695749D01*
X189509102Y-113695436D01*
X189493697Y-113697000D01*
X189275990Y-113697000D01*
X189275988Y-113697001D01*
X189283442Y-113753627D01*
X189283444Y-113753633D01*
X189343899Y-113899585D01*
X189440075Y-114024924D01*
X189565413Y-114121100D01*
X189711365Y-114181554D01*
X189711369Y-114181555D01*
X189828676Y-114196999D01*
X190380499Y-114196999D01*
X190380500Y-114196998D01*
X190380500Y-113671500D01*
X190383050Y-113662814D01*
X190381762Y-113653853D01*
X190392740Y-113629812D01*
X190400185Y-113604461D01*
X190407025Y-113598533D01*
X190410787Y-113590297D01*
X190433021Y-113576007D01*
X190452989Y-113558706D01*
X190463503Y-113556418D01*
X190469565Y-113552523D01*
X190504500Y-113547500D01*
X190511507Y-113547500D01*
X190656500Y-113547500D01*
X190723539Y-113567185D01*
X190769294Y-113619989D01*
X190780500Y-113671500D01*
X190780500Y-114196999D01*
X191332324Y-114196999D01*
X191449628Y-114181557D01*
X191449633Y-114181555D01*
X191595587Y-114121100D01*
X191602628Y-114117035D01*
X191604190Y-114119741D01*
X191622905Y-114112761D01*
X191654746Y-114100402D01*
X191655584Y-114100572D01*
X191656385Y-114100274D01*
X191689756Y-114107533D01*
X191723210Y-114114348D01*
X191724099Y-114115004D01*
X191724658Y-114115126D01*
X191752912Y-114136277D01*
X191795181Y-114178546D01*
X191828666Y-114239869D01*
X191831500Y-114266227D01*
X191831500Y-117889427D01*
X191822062Y-117936877D01*
X191818421Y-117945666D01*
X191818419Y-117945673D01*
X191791500Y-118081004D01*
X191791500Y-121295114D01*
X191771815Y-121362153D01*
X191740385Y-121395432D01*
X191674754Y-121443115D01*
X191674749Y-121443119D01*
X191535115Y-121582753D01*
X191419058Y-121742495D01*
X191419056Y-121742499D01*
X191332203Y-121912954D01*
X191284230Y-121963749D01*
X191216409Y-121980544D01*
X191150274Y-121958006D01*
X191111235Y-121912953D01*
X191024520Y-121742768D01*
X191024512Y-121742755D01*
X190998542Y-121707010D01*
X190998541Y-121707009D01*
X190434962Y-122270589D01*
X190417925Y-122207007D01*
X190352099Y-122092993D01*
X190259007Y-121999901D01*
X190144993Y-121934075D01*
X190081409Y-121917037D01*
X190644989Y-121353457D01*
X190609239Y-121327483D01*
X190433373Y-121237873D01*
X190245646Y-121176876D01*
X190050697Y-121146000D01*
X189853303Y-121146000D01*
X189658353Y-121176876D01*
X189470626Y-121237873D01*
X189294762Y-121327482D01*
X189294760Y-121327483D01*
X189259010Y-121353456D01*
X189259010Y-121353457D01*
X189822591Y-121917037D01*
X189759007Y-121934075D01*
X189644993Y-121999901D01*
X189551901Y-122092993D01*
X189486075Y-122207007D01*
X189469037Y-122270590D01*
X188905457Y-121707010D01*
X188905456Y-121707010D01*
X188879483Y-121742760D01*
X188879479Y-121742767D01*
X188792763Y-121912954D01*
X188744788Y-121963749D01*
X188676967Y-121980544D01*
X188610833Y-121958006D01*
X188571798Y-121912957D01*
X188484944Y-121742499D01*
X188484942Y-121742496D01*
X188484941Y-121742494D01*
X188368884Y-121582753D01*
X188277006Y-121490875D01*
X188229252Y-121443121D01*
X188198564Y-121420824D01*
X188193906Y-121416665D01*
X188178624Y-121392086D01*
X188160948Y-121369163D01*
X188159466Y-121361273D01*
X188157014Y-121357329D01*
X188157140Y-121348885D01*
X188152500Y-121324176D01*
X188152500Y-119819004D01*
X188125581Y-119683677D01*
X188125580Y-119683676D01*
X188125580Y-119683672D01*
X188125578Y-119683667D01*
X188072778Y-119556195D01*
X188072776Y-119556191D01*
X188072775Y-119556189D01*
X188026579Y-119487052D01*
X188026579Y-119487051D01*
X187996115Y-119441458D01*
X187996109Y-119441451D01*
X187644545Y-119089887D01*
X187529807Y-119013222D01*
X187402332Y-118960421D01*
X187402322Y-118960418D01*
X187266996Y-118933500D01*
X187266994Y-118933500D01*
X187266993Y-118933500D01*
X182303007Y-118933500D01*
X182303003Y-118933500D01*
X182194590Y-118955065D01*
X182194589Y-118955065D01*
X182167681Y-118960418D01*
X182167671Y-118960420D01*
X182040190Y-119013224D01*
X181925454Y-119089887D01*
X181925453Y-119089888D01*
X180848162Y-120167181D01*
X180786839Y-120200666D01*
X180760481Y-120203500D01*
X177144727Y-120203500D01*
X177077688Y-120183815D01*
X177037340Y-120141501D01*
X177025514Y-120121018D01*
X176930948Y-119957226D01*
X176891867Y-119906294D01*
X176795248Y-119780377D01*
X176795242Y-119780370D01*
X176637629Y-119622757D01*
X176637622Y-119622751D01*
X176460782Y-119487058D01*
X176460780Y-119487057D01*
X176460774Y-119487052D01*
X176267726Y-119375595D01*
X176267722Y-119375593D01*
X176061790Y-119290293D01*
X176061783Y-119290291D01*
X176061781Y-119290290D01*
X175846463Y-119232596D01*
X175846457Y-119232595D01*
X175846452Y-119232594D01*
X175625466Y-119203501D01*
X175625463Y-119203500D01*
X175625457Y-119203500D01*
X175402543Y-119203500D01*
X175402537Y-119203500D01*
X175402533Y-119203501D01*
X175181547Y-119232594D01*
X175181540Y-119232595D01*
X175181537Y-119232596D01*
X174966219Y-119290290D01*
X174966209Y-119290293D01*
X174760277Y-119375593D01*
X174760273Y-119375595D01*
X174567226Y-119487052D01*
X174567217Y-119487058D01*
X174390377Y-119622751D01*
X174390370Y-119622757D01*
X174232757Y-119780370D01*
X174232751Y-119780377D01*
X174097058Y-119957217D01*
X174097052Y-119957226D01*
X173985595Y-120150273D01*
X173985593Y-120150277D01*
X173900293Y-120356209D01*
X173900290Y-120356219D01*
X173842597Y-120571534D01*
X173842594Y-120571547D01*
X173813501Y-120792533D01*
X173813500Y-120792549D01*
X167378500Y-120792549D01*
X167378500Y-109743984D01*
X173813500Y-109743984D01*
X173813500Y-111744015D01*
X173824000Y-111846795D01*
X173824001Y-111846797D01*
X173839649Y-111894019D01*
X173879186Y-112013335D01*
X173879187Y-112013337D01*
X173971286Y-112162651D01*
X173971289Y-112162655D01*
X174095344Y-112286710D01*
X174095348Y-112286713D01*
X174244662Y-112378812D01*
X174244664Y-112378813D01*
X174244666Y-112378814D01*
X174411203Y-112433999D01*
X174513992Y-112444500D01*
X176172481Y-112444500D01*
X176239520Y-112464185D01*
X176260162Y-112480819D01*
X177170453Y-113391111D01*
X177170454Y-113391112D01*
X177285192Y-113467777D01*
X177376806Y-113505724D01*
X177412672Y-113520580D01*
X177412676Y-113520580D01*
X177412677Y-113520581D01*
X177548004Y-113547500D01*
X177548007Y-113547500D01*
X183319007Y-113547500D01*
X183456993Y-113547500D01*
X184922057Y-113547500D01*
X184922795Y-113547716D01*
X184923535Y-113547509D01*
X184956272Y-113557546D01*
X184989096Y-113567185D01*
X184989598Y-113567765D01*
X184990335Y-113567991D01*
X185012474Y-113594165D01*
X185034851Y-113619989D01*
X185035125Y-113620943D01*
X185035457Y-113621336D01*
X185044996Y-113655317D01*
X185055805Y-113737430D01*
X185045039Y-113806465D01*
X185020547Y-113841294D01*
X183774662Y-115087181D01*
X183713339Y-115120666D01*
X183686981Y-115123500D01*
X177144727Y-115123500D01*
X177077688Y-115103815D01*
X177037340Y-115061501D01*
X176989419Y-114978500D01*
X176930948Y-114877226D01*
X176825160Y-114739360D01*
X176795248Y-114700377D01*
X176795242Y-114700370D01*
X176637629Y-114542757D01*
X176637622Y-114542751D01*
X176460782Y-114407058D01*
X176460780Y-114407057D01*
X176460774Y-114407052D01*
X176267726Y-114295595D01*
X176267722Y-114295593D01*
X176061790Y-114210293D01*
X176061783Y-114210291D01*
X176061781Y-114210290D01*
X175846463Y-114152596D01*
X175846457Y-114152595D01*
X175846452Y-114152594D01*
X175625466Y-114123501D01*
X175625463Y-114123500D01*
X175625457Y-114123500D01*
X175402543Y-114123500D01*
X175402537Y-114123500D01*
X175402533Y-114123501D01*
X175181547Y-114152594D01*
X175181540Y-114152595D01*
X175181537Y-114152596D01*
X175084690Y-114178546D01*
X174966219Y-114210290D01*
X174966209Y-114210293D01*
X174760277Y-114295593D01*
X174760273Y-114295595D01*
X174567226Y-114407052D01*
X174567217Y-114407058D01*
X174390377Y-114542751D01*
X174390370Y-114542757D01*
X174232757Y-114700370D01*
X174232751Y-114700377D01*
X174097058Y-114877217D01*
X174097052Y-114877226D01*
X173985595Y-115070273D01*
X173985593Y-115070277D01*
X173900293Y-115276209D01*
X173900290Y-115276219D01*
X173853389Y-115451259D01*
X173842597Y-115491534D01*
X173842594Y-115491547D01*
X173813501Y-115712533D01*
X173813500Y-115712549D01*
X173813500Y-115935450D01*
X173813501Y-115935466D01*
X173842594Y-116156452D01*
X173842595Y-116156457D01*
X173842596Y-116156463D01*
X173900290Y-116371780D01*
X173900293Y-116371790D01*
X173985593Y-116577722D01*
X173985595Y-116577726D01*
X174097052Y-116770774D01*
X174097057Y-116770780D01*
X174097058Y-116770782D01*
X174232751Y-116947622D01*
X174232757Y-116947629D01*
X174390370Y-117105242D01*
X174390376Y-117105247D01*
X174567226Y-117240948D01*
X174760274Y-117352405D01*
X174966219Y-117437710D01*
X175181537Y-117495404D01*
X175402543Y-117524500D01*
X175402550Y-117524500D01*
X175625450Y-117524500D01*
X175625457Y-117524500D01*
X175846463Y-117495404D01*
X176061781Y-117437710D01*
X176267726Y-117352405D01*
X176460774Y-117240948D01*
X176637624Y-117105247D01*
X176795247Y-116947624D01*
X176930948Y-116770774D01*
X177037340Y-116586499D01*
X177087908Y-116538284D01*
X177144727Y-116524500D01*
X184097496Y-116524500D01*
X184188540Y-116506389D01*
X184232828Y-116497580D01*
X184296569Y-116471177D01*
X184360307Y-116444777D01*
X184360308Y-116444776D01*
X184360311Y-116444775D01*
X184475043Y-116368114D01*
X186609338Y-114233817D01*
X186670661Y-114200333D01*
X186697019Y-114197499D01*
X187107363Y-114197499D01*
X187224753Y-114182046D01*
X187224757Y-114182044D01*
X187224762Y-114182044D01*
X187370841Y-114121536D01*
X187496282Y-114025282D01*
X187592536Y-113899841D01*
X187653044Y-113753762D01*
X187668500Y-113636361D01*
X187668499Y-113357640D01*
X187653044Y-113240238D01*
X187644434Y-113219454D01*
X187636965Y-113149986D01*
X187644435Y-113124545D01*
X187650799Y-113109181D01*
X187653044Y-113103762D01*
X187668500Y-112986361D01*
X187668499Y-112707640D01*
X187668099Y-112704605D01*
X187665277Y-112683170D01*
X187653044Y-112590238D01*
X187653042Y-112590234D01*
X187644435Y-112569455D01*
X187636965Y-112499986D01*
X187644435Y-112474545D01*
X187653044Y-112453762D01*
X187668500Y-112336361D01*
X187668499Y-112057640D01*
X187653044Y-111940238D01*
X187653042Y-111940234D01*
X187644435Y-111919455D01*
X187636965Y-111849986D01*
X187644435Y-111824545D01*
X187653044Y-111803762D01*
X187668500Y-111686361D01*
X187668499Y-111407640D01*
X187668499Y-111407638D01*
X187668499Y-111407636D01*
X187653046Y-111290246D01*
X187653044Y-111290239D01*
X187653044Y-111290238D01*
X187592536Y-111144159D01*
X187496282Y-111018718D01*
X187370841Y-110922464D01*
X187224762Y-110861956D01*
X187224760Y-110861955D01*
X187107370Y-110846501D01*
X187107367Y-110846500D01*
X187107361Y-110846500D01*
X187107354Y-110846500D01*
X185603636Y-110846500D01*
X185486246Y-110861953D01*
X185486237Y-110861956D01*
X185340160Y-110922463D01*
X185214718Y-111018718D01*
X185118463Y-111144160D01*
X185057956Y-111290237D01*
X185057955Y-111290239D01*
X185042500Y-111407638D01*
X185042500Y-111686363D01*
X185057953Y-111803753D01*
X185057957Y-111803765D01*
X185066566Y-111824550D01*
X185074033Y-111894019D01*
X185073620Y-111896200D01*
X185071237Y-111908174D01*
X185057956Y-111940238D01*
X185044464Y-112042718D01*
X185043672Y-112046700D01*
X185029281Y-112074205D01*
X185016728Y-112102582D01*
X185013227Y-112104891D01*
X185011282Y-112108609D01*
X184984305Y-112123968D01*
X184958404Y-112141053D01*
X184952831Y-112141888D01*
X184950564Y-112143179D01*
X184945890Y-112142928D01*
X184922056Y-112146500D01*
X184212500Y-112146500D01*
X184145461Y-112126815D01*
X184099706Y-112074011D01*
X184088500Y-112022500D01*
X184088500Y-109053519D01*
X184108185Y-108986480D01*
X184124819Y-108965838D01*
X185546838Y-107543819D01*
X185608161Y-107510334D01*
X185634519Y-107507500D01*
X205779481Y-107507500D01*
X205846520Y-107527185D01*
X205867162Y-107543819D01*
X206781181Y-108457837D01*
X206814666Y-108519160D01*
X206817500Y-108545518D01*
X206817500Y-127997255D01*
X206797815Y-128064294D01*
X206766385Y-128097573D01*
X206670787Y-128167028D01*
X206670782Y-128167032D01*
X206526028Y-128311786D01*
X206405715Y-128477386D01*
X206312781Y-128659776D01*
X206249522Y-128854465D01*
X206217500Y-129056648D01*
X206217500Y-129261351D01*
X206249522Y-129463534D01*
X206312781Y-129658223D01*
X206405715Y-129840613D01*
X206526028Y-130006213D01*
X206670786Y-130150971D01*
X206812240Y-130253741D01*
X206836390Y-130271287D01*
X206952607Y-130330503D01*
X207018776Y-130364218D01*
X207018778Y-130364218D01*
X207018781Y-130364220D01*
X207123137Y-130398127D01*
X207213465Y-130427477D01*
X207314557Y-130443488D01*
X207415648Y-130459500D01*
X207415649Y-130459500D01*
X207620351Y-130459500D01*
X207620352Y-130459500D01*
X207822534Y-130427477D01*
X208017219Y-130364220D01*
X208199610Y-130271287D01*
X208317801Y-130185417D01*
X208365213Y-130150971D01*
X208365215Y-130150968D01*
X208365219Y-130150966D01*
X208509966Y-130006219D01*
X208509968Y-130006215D01*
X208509971Y-130006213D01*
X208600942Y-129881000D01*
X208630287Y-129840610D01*
X208723220Y-129658219D01*
X208786477Y-129463534D01*
X208818500Y-129261352D01*
X208818500Y-129056648D01*
X208786477Y-128854466D01*
X208723220Y-128659781D01*
X208723218Y-128659778D01*
X208723218Y-128659776D01*
X208661448Y-128538547D01*
X208630287Y-128477390D01*
X208591014Y-128423335D01*
X208509971Y-128311786D01*
X208365217Y-128167032D01*
X208365212Y-128167028D01*
X208269615Y-128097573D01*
X208226949Y-128042243D01*
X208218500Y-127997255D01*
X208218500Y-108135004D01*
X208191581Y-107999677D01*
X208191580Y-107999676D01*
X208191580Y-107999672D01*
X208191578Y-107999667D01*
X208138778Y-107872195D01*
X208138771Y-107872182D01*
X208062115Y-107757459D01*
X208062114Y-107757458D01*
X207964542Y-107659886D01*
X207812156Y-107507500D01*
X206567546Y-106262888D01*
X206567545Y-106262887D01*
X206452807Y-106186222D01*
X206325332Y-106133421D01*
X206325322Y-106133418D01*
X206189996Y-106106500D01*
X206189994Y-106106500D01*
X206189993Y-106106500D01*
X185224007Y-106106500D01*
X185224003Y-106106500D01*
X185115590Y-106128065D01*
X185115589Y-106128065D01*
X185088681Y-106133418D01*
X185088671Y-106133420D01*
X184961190Y-106186224D01*
X184846454Y-106262887D01*
X184846453Y-106262888D01*
X183576457Y-107532886D01*
X182843885Y-108265457D01*
X182843880Y-108265463D01*
X182833283Y-108281325D01*
X182833281Y-108281329D01*
X182767228Y-108380182D01*
X182767221Y-108380195D01*
X182714421Y-108507667D01*
X182714418Y-108507677D01*
X182687500Y-108643004D01*
X182687500Y-112022500D01*
X182667815Y-112089539D01*
X182615011Y-112135294D01*
X182563500Y-112146500D01*
X177958519Y-112146500D01*
X177891480Y-112126815D01*
X177870838Y-112110181D01*
X177250819Y-111490162D01*
X177217334Y-111428839D01*
X177214500Y-111402481D01*
X177214500Y-109743997D01*
X177214499Y-109743984D01*
X177203999Y-109641204D01*
X177203999Y-109641203D01*
X177148814Y-109474666D01*
X177090932Y-109380826D01*
X177056713Y-109325348D01*
X177056710Y-109325344D01*
X176932655Y-109201289D01*
X176932651Y-109201286D01*
X176783337Y-109109187D01*
X176783335Y-109109186D01*
X176681975Y-109075599D01*
X176616797Y-109054001D01*
X176616795Y-109054000D01*
X176514015Y-109043500D01*
X176514008Y-109043500D01*
X174513992Y-109043500D01*
X174513984Y-109043500D01*
X174411204Y-109054000D01*
X174411203Y-109054001D01*
X174244664Y-109109186D01*
X174244662Y-109109187D01*
X174095348Y-109201286D01*
X174095344Y-109201289D01*
X173971289Y-109325344D01*
X173971286Y-109325348D01*
X173879187Y-109474662D01*
X173879186Y-109474664D01*
X173824001Y-109641203D01*
X173824000Y-109641204D01*
X173813500Y-109743984D01*
X167378500Y-109743984D01*
X167378500Y-99954711D01*
X187760500Y-99954711D01*
X187760500Y-100197288D01*
X187792161Y-100437785D01*
X187854947Y-100672104D01*
X187947773Y-100896205D01*
X187947776Y-100896212D01*
X188069064Y-101106289D01*
X188069066Y-101106292D01*
X188069067Y-101106293D01*
X188216733Y-101298736D01*
X188216739Y-101298743D01*
X188388256Y-101470260D01*
X188388262Y-101470265D01*
X188580711Y-101617936D01*
X188790788Y-101739224D01*
X189014900Y-101832054D01*
X189249211Y-101894838D01*
X189429586Y-101918584D01*
X189489711Y-101926500D01*
X189489712Y-101926500D01*
X189732289Y-101926500D01*
X189780388Y-101920167D01*
X189972789Y-101894838D01*
X190207100Y-101832054D01*
X190431212Y-101739224D01*
X190641289Y-101617936D01*
X190833738Y-101470265D01*
X191005265Y-101298738D01*
X191152936Y-101106289D01*
X191274224Y-100896212D01*
X191367054Y-100672100D01*
X191429838Y-100437789D01*
X191461500Y-100197288D01*
X191461500Y-99954712D01*
X191429838Y-99714211D01*
X191367054Y-99479900D01*
X191274224Y-99255788D01*
X191152936Y-99045711D01*
X191005265Y-98853262D01*
X191005260Y-98853256D01*
X190833743Y-98681739D01*
X190833736Y-98681733D01*
X190641293Y-98534067D01*
X190641292Y-98534066D01*
X190641289Y-98534064D01*
X190431212Y-98412776D01*
X190431205Y-98412773D01*
X190207104Y-98319947D01*
X189972785Y-98257161D01*
X189732289Y-98225500D01*
X189732288Y-98225500D01*
X189489712Y-98225500D01*
X189489711Y-98225500D01*
X189249214Y-98257161D01*
X189014895Y-98319947D01*
X188790794Y-98412773D01*
X188790785Y-98412777D01*
X188580706Y-98534067D01*
X188388263Y-98681733D01*
X188388256Y-98681739D01*
X188216739Y-98853256D01*
X188216733Y-98853263D01*
X188069067Y-99045706D01*
X187947777Y-99255785D01*
X187947773Y-99255794D01*
X187854947Y-99479895D01*
X187792161Y-99714214D01*
X187760500Y-99954711D01*
X167378500Y-99954711D01*
X167378500Y-94096500D01*
X167398185Y-94029461D01*
X167450989Y-93983706D01*
X167502500Y-93972500D01*
X211973500Y-93972500D01*
X212040539Y-93992185D01*
G37*
%TD.AperFunction*%
%TD*%
D22*
X166878000Y-93472000D02*
X212598000Y-93472000D01*
X212598000Y-155448000D01*
X166878000Y-155448000D01*
X166878000Y-93472000D01*
M02*
