%TF.GenerationSoftware,KiCad,Pcbnew,9.0.7*%
%TF.CreationDate,2026-03-18T21:08:25+01:00*%
%TF.ProjectId,controle_ventillateur,636f6e74-726f-46c6-955f-76656e74696c,rev?*%
%TF.SameCoordinates,Original*%
%TF.FileFunction,Copper,L2,Bot*%
%TF.FilePolarity,Positive*%
%FSLAX46Y46*%
G04 Gerber Fmt 4.6, Leading zero omitted, Abs format (unit mm)*
G04 Created by KiCad (PCBNEW 9.0.7) date 2026-03-18 21:08:25*
%MOMM*%
%LPD*%
G01*
G04 APERTURE LIST*
G04 Aperture macros list*
%AMRoundRect*
0 Rectangle with rounded corners*
0 $1 Rounding radius*
0 $2 $3 $4 $5 $6 $7 $8 $9 X,Y pos of 4 corners*
0 Add a 4 corners polygon primitive as box body*
4,1,4,$2,$3,$4,$5,$6,$7,$8,$9,$2,$3,0*
0 Add four circle primitives for the rounded corners*
1,1,$1+$1,$2,$3*
1,1,$1+$1,$4,$5*
1,1,$1+$1,$6,$7*
1,1,$1+$1,$8,$9*
0 Add four rect primitives between the rounded corners*
20,1,$1+$1,$2,$3,$4,$5,0*
20,1,$1+$1,$4,$5,$6,$7,0*
20,1,$1+$1,$6,$7,$8,$9,0*
20,1,$1+$1,$8,$9,$2,$3,0*%
G04 Aperture macros list end*
%ADD10C,0.400000*%
%TA.AperFunction,NonConductor*%
%ADD11C,0.400000*%
%TD*%
%TA.AperFunction,ComponentPad*%
%ADD12C,1.600000*%
%TD*%
%TA.AperFunction,ComponentPad*%
%ADD13RoundRect,0.250001X-0.949999X0.949999X-0.949999X-0.949999X0.949999X-0.949999X0.949999X0.949999X0*%
%TD*%
%TA.AperFunction,ComponentPad*%
%ADD14C,2.400000*%
%TD*%
%TA.AperFunction,ComponentPad*%
%ADD15R,1.600000X1.600000*%
%TD*%
%TA.AperFunction,ComponentPad*%
%ADD16R,1.308000X1.308000*%
%TD*%
%TA.AperFunction,ComponentPad*%
%ADD17C,1.308000*%
%TD*%
%TA.AperFunction,ComponentPad*%
%ADD18R,1.508000X1.508000*%
%TD*%
%TA.AperFunction,ComponentPad*%
%ADD19C,1.508000*%
%TD*%
%TA.AperFunction,SMDPad,CuDef*%
%ADD20RoundRect,0.100000X0.712500X0.100000X-0.712500X0.100000X-0.712500X-0.100000X0.712500X-0.100000X0*%
%TD*%
%TA.AperFunction,Conductor*%
%ADD21C,0.400000*%
%TD*%
%TA.AperFunction,Profile*%
%ADD22C,0.050000*%
%TD*%
G04 APERTURE END LIST*
D10*
D11*
X196223918Y-137754295D02*
X195985823Y-137635247D01*
X195985823Y-137635247D02*
X195628680Y-137635247D01*
X195628680Y-137635247D02*
X195271537Y-137754295D01*
X195271537Y-137754295D02*
X195033442Y-137992390D01*
X195033442Y-137992390D02*
X194914395Y-138230485D01*
X194914395Y-138230485D02*
X194795347Y-138706676D01*
X194795347Y-138706676D02*
X194795347Y-139063819D01*
X194795347Y-139063819D02*
X194914395Y-139540009D01*
X194914395Y-139540009D02*
X195033442Y-139778104D01*
X195033442Y-139778104D02*
X195271537Y-140016200D01*
X195271537Y-140016200D02*
X195628680Y-140135247D01*
X195628680Y-140135247D02*
X195866776Y-140135247D01*
X195866776Y-140135247D02*
X196223918Y-140016200D01*
X196223918Y-140016200D02*
X196342966Y-139897152D01*
X196342966Y-139897152D02*
X196342966Y-139063819D01*
X196342966Y-139063819D02*
X195866776Y-139063819D01*
X198604871Y-137635247D02*
X197414395Y-137635247D01*
X197414395Y-137635247D02*
X197295347Y-138825723D01*
X197295347Y-138825723D02*
X197414395Y-138706676D01*
X197414395Y-138706676D02*
X197652490Y-138587628D01*
X197652490Y-138587628D02*
X198247728Y-138587628D01*
X198247728Y-138587628D02*
X198485823Y-138706676D01*
X198485823Y-138706676D02*
X198604871Y-138825723D01*
X198604871Y-138825723D02*
X198723918Y-139063819D01*
X198723918Y-139063819D02*
X198723918Y-139659057D01*
X198723918Y-139659057D02*
X198604871Y-139897152D01*
X198604871Y-139897152D02*
X198485823Y-140016200D01*
X198485823Y-140016200D02*
X198247728Y-140135247D01*
X198247728Y-140135247D02*
X197652490Y-140135247D01*
X197652490Y-140135247D02*
X197414395Y-140016200D01*
X197414395Y-140016200D02*
X197295347Y-139897152D01*
D12*
%TO.P,REF\u002A\u002A,1*%
%TO.N,/TACH*%
X207518000Y-129159000D03*
%TO.P,REF\u002A\u002A,*%
%TO.N,Net-(PS1-+VOUT)*%
X197358000Y-129159000D03*
%TD*%
D13*
%TO.P,REF\u002A\u002A,1*%
%TO.N,12v*%
X175514000Y-136398000D03*
D14*
%TO.P,REF\u002A\u002A,2*%
%TO.N,/GND*%
X175514000Y-141478000D03*
%TD*%
D15*
%TO.P,REF\u002A\u002A,1*%
%TO.N,Net-(PS1-+VOUT)*%
X192659000Y-127381000D03*
D12*
%TO.P,REF\u002A\u002A,2*%
%TO.N,gnd_3.3*%
X192659000Y-129881000D03*
%TD*%
D16*
%TO.P,Grove,1*%
%TO.N,gnd_3.3*%
X198120000Y-115824000D03*
D17*
%TO.P,Grove,2*%
%TO.N,N/C*%
X198120000Y-113824000D03*
%TO.P,Grove,3*%
%TO.N,/SCL*%
X198120000Y-111824000D03*
%TO.P,Grove,4*%
%TO.N,/SDA*%
X198120000Y-109824000D03*
%TD*%
D13*
%TO.P,REF\u002A\u002A,1*%
%TO.N,/TACH*%
X175514000Y-110744000D03*
D14*
%TO.P,REF\u002A\u002A,2*%
%TO.N,/PWM*%
X175514000Y-115824000D03*
%TO.P,REF\u002A\u002A,3*%
%TO.N,12v*%
X175514000Y-120904000D03*
%TO.P,REF\u002A\u002A,4*%
%TO.N,/GND*%
X175514000Y-125984000D03*
%TD*%
D18*
%TO.P,DC/DC,1*%
%TO.N,/GND*%
X184872000Y-122400000D03*
D19*
%TO.P,DC/DC,2*%
%TO.N,12v*%
X187412000Y-122400000D03*
%TO.P,DC/DC,3*%
%TO.N,gnd_3.3*%
X189952000Y-122400000D03*
%TO.P,DC/DC,4*%
%TO.N,Net-(PS1-+VOUT)*%
X192492000Y-122400000D03*
%TD*%
D20*
%TO.P,U7,1,SMDATA*%
%TO.N,/SDA*%
X190580500Y-111547000D03*
%TO.P,U7,2,SMCLK*%
%TO.N,/SCL*%
X190580500Y-112197000D03*
%TO.P,U7,3,VDD*%
%TO.N,Net-(PS1-+VOUT)*%
X190580500Y-112847000D03*
%TO.P,U7,4,GND*%
%TO.N,gnd_3.3*%
X190580500Y-113497000D03*
%TO.P,U7,5,PWM*%
%TO.N,/PWM*%
X186355500Y-113497000D03*
%TO.P,U7,6,TACH*%
%TO.N,/TACH*%
X186355500Y-112847000D03*
%TO.P,U7,7,CLK*%
%TO.N,unconnected-(U7-CLK-Pad7)*%
X186355500Y-112197000D03*
%TO.P,U7,8,~{ALERT}*%
%TO.N,unconnected-(U7-~{ALERT}-Pad8)*%
X186355500Y-111547000D03*
%TD*%
D21*
%TO.N,/TACH*%
X185293000Y-106807000D02*
X184023000Y-108077000D01*
X206121000Y-106807000D02*
X185293000Y-106807000D01*
X207518000Y-108204000D02*
X206121000Y-106807000D01*
X207518000Y-129159000D02*
X207518000Y-108204000D01*
%TO.N,gnd_3.3*%
X201676000Y-131953000D02*
X201676000Y-119380000D01*
X200279000Y-133350000D02*
X201676000Y-131953000D01*
X201676000Y-119380000D02*
X198120000Y-115824000D01*
X194945000Y-133350000D02*
X200279000Y-133350000D01*
X192659000Y-131064000D02*
X194945000Y-133350000D01*
X192659000Y-129881000D02*
X192659000Y-131064000D01*
%TO.N,Net-(PS1-+VOUT)*%
X194056000Y-117856000D02*
X192532000Y-117856000D01*
X197358000Y-121158000D02*
X194056000Y-117856000D01*
X197358000Y-129159000D02*
X197358000Y-121158000D01*
%TO.N,gnd_3.3*%
X192659000Y-129881000D02*
X193138000Y-130360000D01*
%TO.N,/TACH*%
X183388000Y-108712000D02*
X183388000Y-112847000D01*
X184023000Y-108077000D02*
X183388000Y-108712000D01*
X184023000Y-108077000D02*
X183769000Y-108331000D01*
%TO.N,gnd_3.3*%
X189952000Y-127174000D02*
X192659000Y-129881000D01*
X189952000Y-122400000D02*
X189952000Y-127174000D01*
%TO.N,Net-(PS1-+VOUT)*%
X192659000Y-122567000D02*
X192492000Y-122400000D01*
X192659000Y-127381000D02*
X192659000Y-122567000D01*
%TO.N,/TACH*%
X183388000Y-112847000D02*
X177617000Y-112847000D01*
X186355500Y-112847000D02*
X183388000Y-112847000D01*
X177617000Y-112847000D02*
X175514000Y-110744000D01*
%TO.N,/SCL*%
X194056000Y-112197000D02*
X190580500Y-112197000D01*
X198120000Y-111824000D02*
X194429000Y-111824000D01*
X194429000Y-111824000D02*
X194056000Y-112197000D01*
%TO.N,/SDA*%
X191928000Y-109824000D02*
X191770000Y-109982000D01*
X191770000Y-109982000D02*
X191770000Y-110357500D01*
X198120000Y-109824000D02*
X191928000Y-109824000D01*
X191770000Y-110357500D02*
X190580500Y-111547000D01*
%TO.N,/PWM*%
X175514000Y-115824000D02*
X184028500Y-115824000D01*
X184028500Y-115824000D02*
X186355500Y-113497000D01*
%TO.N,Net-(PS1-+VOUT)*%
X192532000Y-117856000D02*
X192532000Y-118110000D01*
X192532000Y-118110000D02*
X192492000Y-118150000D01*
X191454292Y-112847000D02*
X192532000Y-113924708D01*
X190580500Y-112847000D02*
X191454292Y-112847000D01*
X192492000Y-118150000D02*
X192492000Y-122400000D01*
X192532000Y-113924708D02*
X192532000Y-117856000D01*
%TO.N,12v*%
X182372000Y-119634000D02*
X187198000Y-119634000D01*
X187452000Y-122360000D02*
X187412000Y-122400000D01*
X181102000Y-120904000D02*
X182372000Y-119634000D01*
X181102000Y-136398000D02*
X187198000Y-130302000D01*
X187198000Y-130302000D02*
X187198000Y-122614000D01*
X175514000Y-120904000D02*
X181102000Y-120904000D01*
X187198000Y-119634000D02*
X187452000Y-119888000D01*
X175514000Y-136398000D02*
X181102000Y-136398000D01*
X187198000Y-122614000D02*
X187412000Y-122400000D01*
X187452000Y-119888000D02*
X187452000Y-122360000D01*
%TO.N,gnd_3.3*%
X189952000Y-117308000D02*
X190580500Y-116679500D01*
X189952000Y-122400000D02*
X189952000Y-117308000D01*
X190580500Y-116679500D02*
X190580500Y-113497000D01*
%TD*%
%TA.AperFunction,Conductor*%
%TO.N,/GND*%
G36*
X212040539Y-93992185D02*
G01*
X212086294Y-94044989D01*
X212097500Y-94096500D01*
X212097500Y-154823500D01*
X212077815Y-154890539D01*
X212025011Y-154936294D01*
X211973500Y-154947500D01*
X167502500Y-154947500D01*
X167435461Y-154927815D01*
X167389706Y-154875011D01*
X167378500Y-154823500D01*
X167378500Y-148468711D01*
X187887500Y-148468711D01*
X187887500Y-148711288D01*
X187919161Y-148951785D01*
X187981947Y-149186104D01*
X188074773Y-149410205D01*
X188074776Y-149410212D01*
X188196064Y-149620289D01*
X188196066Y-149620292D01*
X188196067Y-149620293D01*
X188343733Y-149812736D01*
X188343739Y-149812743D01*
X188515256Y-149984260D01*
X188515262Y-149984265D01*
X188707711Y-150131936D01*
X188917788Y-150253224D01*
X189141900Y-150346054D01*
X189376211Y-150408838D01*
X189556586Y-150432584D01*
X189616711Y-150440500D01*
X189616712Y-150440500D01*
X189859289Y-150440500D01*
X189907388Y-150434167D01*
X190099789Y-150408838D01*
X190334100Y-150346054D01*
X190558212Y-150253224D01*
X190768289Y-150131936D01*
X190960738Y-149984265D01*
X191132265Y-149812738D01*
X191279936Y-149620289D01*
X191401224Y-149410212D01*
X191494054Y-149186100D01*
X191556838Y-148951789D01*
X191588500Y-148711288D01*
X191588500Y-148468712D01*
X191556838Y-148228211D01*
X191494054Y-147993900D01*
X191401224Y-147769788D01*
X191279936Y-147559711D01*
X191132265Y-147367262D01*
X191132260Y-147367256D01*
X190960743Y-147195739D01*
X190960736Y-147195733D01*
X190768293Y-147048067D01*
X190768292Y-147048066D01*
X190768289Y-147048064D01*
X190558212Y-146926776D01*
X190558205Y-146926773D01*
X190334104Y-146833947D01*
X190099785Y-146771161D01*
X189859289Y-146739500D01*
X189859288Y-146739500D01*
X189616712Y-146739500D01*
X189616711Y-146739500D01*
X189376214Y-146771161D01*
X189141895Y-146833947D01*
X188917794Y-146926773D01*
X188917785Y-146926777D01*
X188707706Y-147048067D01*
X188515263Y-147195733D01*
X188515256Y-147195739D01*
X188343739Y-147367256D01*
X188343733Y-147367263D01*
X188196067Y-147559706D01*
X188074777Y-147769785D01*
X188074773Y-147769794D01*
X187981947Y-147993895D01*
X187919161Y-148228214D01*
X187887500Y-148468711D01*
X167378500Y-148468711D01*
X167378500Y-141366575D01*
X173814000Y-141366575D01*
X173814000Y-141589424D01*
X173843085Y-141810354D01*
X173843088Y-141810367D01*
X173900763Y-142025618D01*
X173986045Y-142231502D01*
X173986054Y-142231520D01*
X174097464Y-142424491D01*
X174097473Y-142424504D01*
X174148040Y-142490403D01*
X174148043Y-142490403D01*
X174798152Y-141840293D01*
X174805049Y-141856942D01*
X174892599Y-141987970D01*
X175004030Y-142099401D01*
X175135058Y-142186951D01*
X175151705Y-142193846D01*
X174501595Y-142843955D01*
X174501595Y-142843956D01*
X174567507Y-142894533D01*
X174760485Y-143005949D01*
X174760497Y-143005954D01*
X174966381Y-143091236D01*
X175181632Y-143148911D01*
X175181645Y-143148914D01*
X175402575Y-143178000D01*
X175625425Y-143178000D01*
X175846354Y-143148914D01*
X175846367Y-143148911D01*
X176061618Y-143091236D01*
X176267502Y-143005954D01*
X176267514Y-143005949D01*
X176460498Y-142894530D01*
X176526403Y-142843957D01*
X176526404Y-142843956D01*
X175876294Y-142193846D01*
X175892942Y-142186951D01*
X176023970Y-142099401D01*
X176135401Y-141987970D01*
X176222951Y-141856942D01*
X176229846Y-141840294D01*
X176879956Y-142490404D01*
X176879957Y-142490403D01*
X176930530Y-142424498D01*
X177041949Y-142231514D01*
X177041954Y-142231502D01*
X177127236Y-142025618D01*
X177184911Y-141810367D01*
X177184914Y-141810354D01*
X177214000Y-141589424D01*
X177214000Y-141366575D01*
X177184914Y-141145645D01*
X177184911Y-141145632D01*
X177127236Y-140930381D01*
X177091062Y-140843051D01*
X194086224Y-140843051D01*
X199431722Y-140843051D01*
X199431722Y-136926806D01*
X194086224Y-136926806D01*
X194086224Y-140843051D01*
X177091062Y-140843051D01*
X177041954Y-140724497D01*
X177041949Y-140724485D01*
X176930533Y-140531507D01*
X176879956Y-140465595D01*
X176879955Y-140465595D01*
X176229846Y-141115704D01*
X176222951Y-141099058D01*
X176135401Y-140968030D01*
X176023970Y-140856599D01*
X175892942Y-140769049D01*
X175876293Y-140762152D01*
X176526403Y-140112043D01*
X176526403Y-140112040D01*
X176460504Y-140061473D01*
X176460491Y-140061464D01*
X176267520Y-139950054D01*
X176267502Y-139950045D01*
X176061618Y-139864763D01*
X175846367Y-139807088D01*
X175846354Y-139807085D01*
X175625425Y-139778000D01*
X175402575Y-139778000D01*
X175181645Y-139807085D01*
X175181632Y-139807088D01*
X174966381Y-139864763D01*
X174760497Y-139950045D01*
X174760479Y-139950054D01*
X174567511Y-140061462D01*
X174501595Y-140112042D01*
X175151706Y-140762152D01*
X175135058Y-140769049D01*
X175004030Y-140856599D01*
X174892599Y-140968030D01*
X174805049Y-141099058D01*
X174798153Y-141115706D01*
X174148042Y-140465595D01*
X174097462Y-140531511D01*
X173986054Y-140724479D01*
X173986045Y-140724497D01*
X173900763Y-140930381D01*
X173843088Y-141145632D01*
X173843085Y-141145645D01*
X173814000Y-141366575D01*
X167378500Y-141366575D01*
X167378500Y-125872575D01*
X173814000Y-125872575D01*
X173814000Y-126095424D01*
X173843085Y-126316354D01*
X173843088Y-126316367D01*
X173900763Y-126531618D01*
X173986045Y-126737502D01*
X173986054Y-126737520D01*
X174097464Y-126930491D01*
X174097473Y-126930504D01*
X174148040Y-126996403D01*
X174148043Y-126996403D01*
X174798152Y-126346293D01*
X174805049Y-126362942D01*
X174892599Y-126493970D01*
X175004030Y-126605401D01*
X175135058Y-126692951D01*
X175151705Y-126699846D01*
X174501595Y-127349955D01*
X174501595Y-127349956D01*
X174567507Y-127400533D01*
X174760485Y-127511949D01*
X174760497Y-127511954D01*
X174966381Y-127597236D01*
X175181632Y-127654911D01*
X175181645Y-127654914D01*
X175402575Y-127684000D01*
X175625425Y-127684000D01*
X175846354Y-127654914D01*
X175846367Y-127654911D01*
X176061618Y-127597236D01*
X176267502Y-127511954D01*
X176267514Y-127511949D01*
X176460498Y-127400530D01*
X176526403Y-127349957D01*
X176526404Y-127349956D01*
X175876294Y-126699846D01*
X175892942Y-126692951D01*
X176023970Y-126605401D01*
X176135401Y-126493970D01*
X176222951Y-126362942D01*
X176229846Y-126346294D01*
X176879956Y-126996404D01*
X176879957Y-126996403D01*
X176930530Y-126930498D01*
X177041949Y-126737514D01*
X177041954Y-126737502D01*
X177127236Y-126531618D01*
X177184911Y-126316367D01*
X177184914Y-126316354D01*
X177214000Y-126095424D01*
X177214000Y-125872575D01*
X177184914Y-125651645D01*
X177184911Y-125651632D01*
X177127236Y-125436381D01*
X177041954Y-125230497D01*
X177041949Y-125230485D01*
X176930533Y-125037507D01*
X176879956Y-124971595D01*
X176879955Y-124971595D01*
X176229846Y-125621704D01*
X176222951Y-125605058D01*
X176135401Y-125474030D01*
X176023970Y-125362599D01*
X175892942Y-125275049D01*
X175876293Y-125268152D01*
X176526403Y-124618043D01*
X176526403Y-124618040D01*
X176460504Y-124567473D01*
X176460491Y-124567464D01*
X176267520Y-124456054D01*
X176267502Y-124456045D01*
X176061618Y-124370763D01*
X175846367Y-124313088D01*
X175846354Y-124313085D01*
X175625425Y-124284000D01*
X175402575Y-124284000D01*
X175181645Y-124313085D01*
X175181632Y-124313088D01*
X174966381Y-124370763D01*
X174760497Y-124456045D01*
X174760479Y-124456054D01*
X174567511Y-124567462D01*
X174501595Y-124618042D01*
X175151706Y-125268152D01*
X175135058Y-125275049D01*
X175004030Y-125362599D01*
X174892599Y-125474030D01*
X174805049Y-125605058D01*
X174798153Y-125621706D01*
X174148042Y-124971595D01*
X174097462Y-125037511D01*
X173986054Y-125230479D01*
X173986045Y-125230497D01*
X173900763Y-125436381D01*
X173843088Y-125651632D01*
X173843085Y-125651645D01*
X173814000Y-125872575D01*
X167378500Y-125872575D01*
X167378500Y-120792549D01*
X173813500Y-120792549D01*
X173813500Y-121015450D01*
X173813501Y-121015466D01*
X173842594Y-121236452D01*
X173842595Y-121236457D01*
X173842596Y-121236463D01*
X173899319Y-121448157D01*
X173900290Y-121451780D01*
X173900293Y-121451790D01*
X173984098Y-121654112D01*
X173985595Y-121657726D01*
X174097052Y-121850774D01*
X174097057Y-121850780D01*
X174097058Y-121850782D01*
X174232751Y-122027622D01*
X174232757Y-122027629D01*
X174390370Y-122185242D01*
X174390376Y-122185247D01*
X174567226Y-122320948D01*
X174760274Y-122432405D01*
X174840960Y-122465826D01*
X174920411Y-122498736D01*
X174966219Y-122517710D01*
X175181537Y-122575404D01*
X175402543Y-122604500D01*
X175402550Y-122604500D01*
X175625450Y-122604500D01*
X175625457Y-122604500D01*
X175846463Y-122575404D01*
X176061781Y-122517710D01*
X176107600Y-122498731D01*
X176142979Y-122484077D01*
X176187040Y-122465826D01*
X176267726Y-122432405D01*
X176460774Y-122320948D01*
X176637624Y-122185247D01*
X176795247Y-122027624D01*
X176930948Y-121850774D01*
X177037340Y-121666499D01*
X177087908Y-121618284D01*
X177144727Y-121604500D01*
X181170996Y-121604500D01*
X181280347Y-121582748D01*
X181306328Y-121577580D01*
X181433811Y-121524775D01*
X181548543Y-121448114D01*
X182625838Y-120370819D01*
X182687161Y-120337334D01*
X182713519Y-120334500D01*
X186627500Y-120334500D01*
X186694539Y-120354185D01*
X186740294Y-120406989D01*
X186751500Y-120458500D01*
X186751500Y-121266053D01*
X186731815Y-121333092D01*
X186700385Y-121366371D01*
X186594751Y-121443118D01*
X186594745Y-121443123D01*
X186455115Y-121582753D01*
X186350318Y-121726997D01*
X186294989Y-121769663D01*
X186225375Y-121775642D01*
X186163580Y-121743037D01*
X186129223Y-121682198D01*
X186126000Y-121654112D01*
X186126000Y-121598172D01*
X186125999Y-121598155D01*
X186119598Y-121538627D01*
X186119596Y-121538620D01*
X186069354Y-121403913D01*
X186069350Y-121403906D01*
X185983190Y-121288812D01*
X185983187Y-121288809D01*
X185868093Y-121202649D01*
X185868086Y-121202645D01*
X185733379Y-121152403D01*
X185733372Y-121152401D01*
X185673844Y-121146000D01*
X185122000Y-121146000D01*
X185122000Y-121966988D01*
X185064993Y-121934075D01*
X184937826Y-121900000D01*
X184806174Y-121900000D01*
X184679007Y-121934075D01*
X184622000Y-121966988D01*
X184622000Y-121146000D01*
X184070155Y-121146000D01*
X184010627Y-121152401D01*
X184010620Y-121152403D01*
X183875913Y-121202645D01*
X183875906Y-121202649D01*
X183760812Y-121288809D01*
X183760809Y-121288812D01*
X183674649Y-121403906D01*
X183674645Y-121403913D01*
X183624403Y-121538620D01*
X183624401Y-121538627D01*
X183618000Y-121598155D01*
X183618000Y-122150000D01*
X184438988Y-122150000D01*
X184406075Y-122207007D01*
X184372000Y-122334174D01*
X184372000Y-122465826D01*
X184406075Y-122592993D01*
X184438988Y-122650000D01*
X183618000Y-122650000D01*
X183618000Y-123201844D01*
X183624401Y-123261372D01*
X183624403Y-123261379D01*
X183674645Y-123396086D01*
X183674649Y-123396093D01*
X183760809Y-123511187D01*
X183760812Y-123511190D01*
X183875906Y-123597350D01*
X183875913Y-123597354D01*
X184010620Y-123647596D01*
X184010627Y-123647598D01*
X184070155Y-123653999D01*
X184070172Y-123654000D01*
X184622000Y-123654000D01*
X184622000Y-122833012D01*
X184679007Y-122865925D01*
X184806174Y-122900000D01*
X184937826Y-122900000D01*
X185064993Y-122865925D01*
X185122000Y-122833012D01*
X185122000Y-123654000D01*
X185673828Y-123654000D01*
X185673844Y-123653999D01*
X185733372Y-123647598D01*
X185733379Y-123647596D01*
X185868086Y-123597354D01*
X185868093Y-123597350D01*
X185983187Y-123511190D01*
X185983190Y-123511187D01*
X186069350Y-123396093D01*
X186069354Y-123396086D01*
X186119596Y-123261379D01*
X186119598Y-123261372D01*
X186125999Y-123201844D01*
X186126000Y-123201827D01*
X186126000Y-123145887D01*
X186134651Y-123116424D01*
X186141190Y-123086419D01*
X186144405Y-123083206D01*
X186145685Y-123078848D01*
X186168882Y-123058747D01*
X186190614Y-123037032D01*
X186195056Y-123036067D01*
X186198489Y-123033093D01*
X186228877Y-123028723D01*
X186258893Y-123022206D01*
X186263149Y-123023795D01*
X186267647Y-123023149D01*
X186295579Y-123035905D01*
X186324348Y-123046648D01*
X186328640Y-123051003D01*
X186331203Y-123052174D01*
X186349295Y-123071614D01*
X186349804Y-123072294D01*
X186455121Y-123217252D01*
X186467469Y-123229600D01*
X186472795Y-123236720D01*
X186482012Y-123261462D01*
X186494666Y-123284635D01*
X186496296Y-123299803D01*
X186497187Y-123302193D01*
X186496763Y-123304138D01*
X186497500Y-123310993D01*
X186497500Y-129960481D01*
X186477815Y-130027520D01*
X186461181Y-130048162D01*
X180848162Y-135661181D01*
X180786839Y-135694666D01*
X180760481Y-135697500D01*
X177338500Y-135697500D01*
X177271461Y-135677815D01*
X177225706Y-135625011D01*
X177214500Y-135573500D01*
X177214500Y-135397997D01*
X177214499Y-135397984D01*
X177203999Y-135295204D01*
X177203999Y-135295203D01*
X177148814Y-135128666D01*
X177056711Y-134979345D01*
X176932655Y-134855289D01*
X176932651Y-134855286D01*
X176783337Y-134763187D01*
X176783335Y-134763186D01*
X176700065Y-134735593D01*
X176616797Y-134708001D01*
X176616795Y-134708000D01*
X176514015Y-134697500D01*
X176514008Y-134697500D01*
X174513992Y-134697500D01*
X174513984Y-134697500D01*
X174411204Y-134708000D01*
X174411203Y-134708001D01*
X174244664Y-134763186D01*
X174244662Y-134763187D01*
X174095348Y-134855286D01*
X174095344Y-134855289D01*
X173971289Y-134979344D01*
X173971286Y-134979348D01*
X173879187Y-135128662D01*
X173879186Y-135128664D01*
X173824001Y-135295203D01*
X173824000Y-135295204D01*
X173813500Y-135397984D01*
X173813500Y-137398015D01*
X173824000Y-137500795D01*
X173824001Y-137500796D01*
X173879186Y-137667335D01*
X173879187Y-137667337D01*
X173971286Y-137816651D01*
X173971289Y-137816655D01*
X174095344Y-137940710D01*
X174095348Y-137940713D01*
X174244662Y-138032812D01*
X174244664Y-138032813D01*
X174244666Y-138032814D01*
X174411203Y-138087999D01*
X174513992Y-138098500D01*
X174513997Y-138098500D01*
X176514003Y-138098500D01*
X176514008Y-138098500D01*
X176616797Y-138087999D01*
X176783334Y-138032814D01*
X176932655Y-137940711D01*
X177056711Y-137816655D01*
X177148814Y-137667334D01*
X177203999Y-137500797D01*
X177214500Y-137398008D01*
X177214500Y-137222500D01*
X177234185Y-137155461D01*
X177286989Y-137109706D01*
X177338500Y-137098500D01*
X181170996Y-137098500D01*
X181262040Y-137080389D01*
X181306328Y-137071580D01*
X181370069Y-137045177D01*
X181433807Y-137018777D01*
X181433808Y-137018776D01*
X181433811Y-137018775D01*
X181548543Y-136942114D01*
X181563851Y-136926806D01*
X181702895Y-136787763D01*
X187742111Y-130748546D01*
X187742112Y-130748545D01*
X187742114Y-130748543D01*
X187818775Y-130633811D01*
X187871580Y-130506328D01*
X187889447Y-130416505D01*
X187898500Y-130370996D01*
X187898500Y-123636061D01*
X187918185Y-123569022D01*
X187966204Y-123525576D01*
X188069501Y-123472944D01*
X188175288Y-123396086D01*
X188229246Y-123356884D01*
X188229248Y-123356881D01*
X188229252Y-123356879D01*
X188368879Y-123217252D01*
X188368881Y-123217248D01*
X188368884Y-123217246D01*
X188484941Y-123057505D01*
X188484942Y-123057504D01*
X188484944Y-123057501D01*
X188571517Y-122887593D01*
X188619490Y-122836800D01*
X188687311Y-122820005D01*
X188753446Y-122842542D01*
X188792482Y-122887593D01*
X188861072Y-123022206D01*
X188879058Y-123057505D01*
X188995115Y-123217246D01*
X189134751Y-123356882D01*
X189200385Y-123404567D01*
X189243051Y-123459896D01*
X189251500Y-123504885D01*
X189251500Y-127105006D01*
X189251500Y-127242994D01*
X189251500Y-127242996D01*
X189251499Y-127242996D01*
X189278418Y-127378322D01*
X189278421Y-127378332D01*
X189331222Y-127505807D01*
X189407887Y-127620545D01*
X189407888Y-127620546D01*
X191342194Y-129554851D01*
X191375679Y-129616174D01*
X191376986Y-129661929D01*
X191358500Y-129778647D01*
X191358500Y-129983351D01*
X191390522Y-130185534D01*
X191453781Y-130380223D01*
X191546715Y-130562613D01*
X191667028Y-130728213D01*
X191811784Y-130872969D01*
X191907385Y-130942426D01*
X191950051Y-130997755D01*
X191958500Y-131042744D01*
X191958500Y-131132994D01*
X191958500Y-131132996D01*
X191958499Y-131132996D01*
X191985418Y-131268322D01*
X191985421Y-131268332D01*
X192038222Y-131395807D01*
X192114887Y-131510545D01*
X194498454Y-133894112D01*
X194613190Y-133970776D01*
X194711790Y-134011617D01*
X194740671Y-134023580D01*
X194740672Y-134023580D01*
X194740677Y-134023582D01*
X194767545Y-134028925D01*
X194767551Y-134028926D01*
X194767591Y-134028934D01*
X194857937Y-134046905D01*
X194876006Y-134050500D01*
X194876007Y-134050500D01*
X200347996Y-134050500D01*
X200456457Y-134028925D01*
X200483328Y-134023580D01*
X200547069Y-133997177D01*
X200610807Y-133970777D01*
X200610808Y-133970776D01*
X200610811Y-133970775D01*
X200725543Y-133894114D01*
X202220113Y-132399543D01*
X202296774Y-132284812D01*
X202296775Y-132284811D01*
X202349580Y-132157328D01*
X202376500Y-132021993D01*
X202376500Y-119311007D01*
X202351933Y-119187500D01*
X202349580Y-119175671D01*
X202314047Y-119089888D01*
X202314046Y-119089885D01*
X202307367Y-119073761D01*
X202296775Y-119048189D01*
X202238130Y-118960421D01*
X202220115Y-118933459D01*
X202220114Y-118933458D01*
X202122542Y-118835886D01*
X199310818Y-116024161D01*
X199277333Y-115962838D01*
X199274499Y-115936480D01*
X199274499Y-115122129D01*
X199274498Y-115122123D01*
X199274497Y-115122116D01*
X199268091Y-115062517D01*
X199217796Y-114927669D01*
X199217795Y-114927668D01*
X199217793Y-114927664D01*
X199131547Y-114812455D01*
X199033366Y-114738956D01*
X198991496Y-114683022D01*
X198986512Y-114613331D01*
X199007361Y-114566804D01*
X199024833Y-114542757D01*
X199107417Y-114429090D01*
X199189917Y-114267174D01*
X199211674Y-114200212D01*
X199246071Y-114094350D01*
X199246071Y-114094349D01*
X199246072Y-114094346D01*
X199274500Y-113914861D01*
X199274500Y-113733139D01*
X199246072Y-113553654D01*
X199246071Y-113553650D01*
X199246071Y-113553649D01*
X199189918Y-113380828D01*
X199189916Y-113380825D01*
X199178103Y-113357639D01*
X199107417Y-113218910D01*
X199000603Y-113071894D01*
X198872106Y-112943397D01*
X198845845Y-112924317D01*
X198803180Y-112868988D01*
X198797201Y-112799375D01*
X198829807Y-112737580D01*
X198845846Y-112723682D01*
X198872106Y-112704603D01*
X199000603Y-112576106D01*
X199107417Y-112429090D01*
X199189917Y-112267174D01*
X199223877Y-112162655D01*
X199246071Y-112094350D01*
X199246071Y-112094349D01*
X199246072Y-112094346D01*
X199274500Y-111914861D01*
X199274500Y-111733139D01*
X199246072Y-111553654D01*
X199246071Y-111553650D01*
X199246071Y-111553649D01*
X199189918Y-111380828D01*
X199189916Y-111380825D01*
X199143761Y-111290239D01*
X199107417Y-111218910D01*
X199000603Y-111071894D01*
X198872106Y-110943397D01*
X198845845Y-110924317D01*
X198803180Y-110868988D01*
X198797201Y-110799375D01*
X198829807Y-110737580D01*
X198845846Y-110723682D01*
X198872106Y-110704603D01*
X199000603Y-110576106D01*
X199107417Y-110429090D01*
X199189917Y-110267174D01*
X199189918Y-110267171D01*
X199246071Y-110094350D01*
X199246071Y-110094349D01*
X199246072Y-110094346D01*
X199274500Y-109914861D01*
X199274500Y-109733139D01*
X199246072Y-109553654D01*
X199246071Y-109553650D01*
X199246071Y-109553649D01*
X199189918Y-109380828D01*
X199189916Y-109380825D01*
X199161650Y-109325348D01*
X199107417Y-109218910D01*
X199000603Y-109071894D01*
X198872106Y-108943397D01*
X198725090Y-108836583D01*
X198563174Y-108754083D01*
X198563171Y-108754081D01*
X198390348Y-108697928D01*
X198270689Y-108678976D01*
X198210861Y-108669500D01*
X198029139Y-108669500D01*
X197969310Y-108678976D01*
X197849652Y-108697928D01*
X197849649Y-108697928D01*
X197676828Y-108754081D01*
X197676825Y-108754083D01*
X197514909Y-108836583D01*
X197431030Y-108897525D01*
X197367894Y-108943397D01*
X197367892Y-108943399D01*
X197367891Y-108943399D01*
X197239399Y-109071891D01*
X197239399Y-109071892D01*
X197239397Y-109071894D01*
X197239036Y-109072390D01*
X197238852Y-109072532D01*
X197236233Y-109075599D01*
X197235588Y-109075048D01*
X197183706Y-109115053D01*
X197138722Y-109123500D01*
X191859004Y-109123500D01*
X191723677Y-109150418D01*
X191723667Y-109150421D01*
X191596192Y-109203222D01*
X191481454Y-109279887D01*
X191225887Y-109535454D01*
X191149222Y-109650192D01*
X191096421Y-109777667D01*
X191096418Y-109777679D01*
X191072728Y-109896778D01*
X191069500Y-109913005D01*
X191069500Y-110015980D01*
X191049815Y-110083019D01*
X191033181Y-110103661D01*
X190326660Y-110810181D01*
X190265337Y-110843666D01*
X190238979Y-110846500D01*
X189828636Y-110846500D01*
X189711246Y-110861953D01*
X189711237Y-110861956D01*
X189565160Y-110922463D01*
X189439718Y-111018718D01*
X189343463Y-111144160D01*
X189282956Y-111290237D01*
X189282955Y-111290239D01*
X189267500Y-111407638D01*
X189267500Y-111686363D01*
X189282953Y-111803753D01*
X189282957Y-111803765D01*
X189291566Y-111824550D01*
X189299033Y-111894019D01*
X189291566Y-111919450D01*
X189282957Y-111940234D01*
X189282955Y-111940239D01*
X189267500Y-112057638D01*
X189267500Y-112336363D01*
X189282953Y-112453753D01*
X189282957Y-112453765D01*
X189291566Y-112474550D01*
X189299033Y-112544019D01*
X189291566Y-112569450D01*
X189282957Y-112590234D01*
X189282955Y-112590239D01*
X189267500Y-112707638D01*
X189267500Y-112986363D01*
X189282953Y-113103753D01*
X189282957Y-113103765D01*
X189291566Y-113124550D01*
X189299033Y-113194019D01*
X189291566Y-113219450D01*
X189282957Y-113240234D01*
X189282955Y-113240239D01*
X189267500Y-113357638D01*
X189267500Y-113636363D01*
X189282953Y-113753753D01*
X189282956Y-113753762D01*
X189343464Y-113899841D01*
X189439718Y-114025282D01*
X189565159Y-114121536D01*
X189711238Y-114182044D01*
X189772186Y-114190067D01*
X189836081Y-114218333D01*
X189874553Y-114276657D01*
X189880000Y-114313006D01*
X189880000Y-116337980D01*
X189860315Y-116405019D01*
X189843681Y-116425661D01*
X189407888Y-116861453D01*
X189407887Y-116861454D01*
X189367571Y-116921793D01*
X189333963Y-116972091D01*
X189333962Y-116972091D01*
X189331225Y-116976187D01*
X189278420Y-117103671D01*
X189278418Y-117103677D01*
X189251500Y-117239004D01*
X189251500Y-121295114D01*
X189231815Y-121362153D01*
X189200385Y-121395432D01*
X189134754Y-121443115D01*
X189134749Y-121443119D01*
X188995115Y-121582753D01*
X188879058Y-121742495D01*
X188879056Y-121742499D01*
X188798805Y-121900000D01*
X188792485Y-121912403D01*
X188744510Y-121963199D01*
X188676689Y-121979994D01*
X188610554Y-121957456D01*
X188571515Y-121912403D01*
X188484944Y-121742499D01*
X188473681Y-121726997D01*
X188368884Y-121582753D01*
X188229251Y-121443120D01*
X188203613Y-121424493D01*
X188160948Y-121369163D01*
X188152500Y-121324176D01*
X188152500Y-119819004D01*
X188125581Y-119683677D01*
X188125580Y-119683676D01*
X188125580Y-119683672D01*
X188104938Y-119633837D01*
X188072778Y-119556195D01*
X188072776Y-119556191D01*
X188072775Y-119556189D01*
X188026579Y-119487052D01*
X188026579Y-119487051D01*
X187996115Y-119441458D01*
X187996109Y-119441451D01*
X187644545Y-119089887D01*
X187529807Y-119013222D01*
X187402332Y-118960421D01*
X187402322Y-118960418D01*
X187266996Y-118933500D01*
X187266994Y-118933500D01*
X187266993Y-118933500D01*
X182303007Y-118933500D01*
X182303003Y-118933500D01*
X182194590Y-118955065D01*
X182194589Y-118955065D01*
X182167681Y-118960418D01*
X182167671Y-118960420D01*
X182040190Y-119013224D01*
X181925454Y-119089887D01*
X181925453Y-119089888D01*
X180848162Y-120167181D01*
X180786839Y-120200666D01*
X180760481Y-120203500D01*
X177144727Y-120203500D01*
X177077688Y-120183815D01*
X177037340Y-120141501D01*
X177025514Y-120121018D01*
X176930948Y-119957226D01*
X176891867Y-119906294D01*
X176795248Y-119780377D01*
X176795242Y-119780370D01*
X176637629Y-119622757D01*
X176637622Y-119622751D01*
X176460782Y-119487058D01*
X176460780Y-119487057D01*
X176460774Y-119487052D01*
X176267726Y-119375595D01*
X176267722Y-119375593D01*
X176061790Y-119290293D01*
X176061783Y-119290291D01*
X176061781Y-119290290D01*
X175846463Y-119232596D01*
X175846457Y-119232595D01*
X175846452Y-119232594D01*
X175625466Y-119203501D01*
X175625463Y-119203500D01*
X175625457Y-119203500D01*
X175402543Y-119203500D01*
X175402537Y-119203500D01*
X175402533Y-119203501D01*
X175181547Y-119232594D01*
X175181540Y-119232595D01*
X175181537Y-119232596D01*
X174966219Y-119290290D01*
X174966209Y-119290293D01*
X174760277Y-119375593D01*
X174760273Y-119375595D01*
X174567226Y-119487052D01*
X174567217Y-119487058D01*
X174390377Y-119622751D01*
X174390370Y-119622757D01*
X174232757Y-119780370D01*
X174232751Y-119780377D01*
X174097058Y-119957217D01*
X174097052Y-119957226D01*
X173985595Y-120150273D01*
X173985593Y-120150277D01*
X173900293Y-120356209D01*
X173900290Y-120356219D01*
X173842597Y-120571534D01*
X173842594Y-120571547D01*
X173813501Y-120792533D01*
X173813500Y-120792549D01*
X167378500Y-120792549D01*
X167378500Y-109743984D01*
X173813500Y-109743984D01*
X173813500Y-111744015D01*
X173824000Y-111846795D01*
X173824001Y-111846797D01*
X173839649Y-111894019D01*
X173879186Y-112013335D01*
X173879187Y-112013337D01*
X173971286Y-112162651D01*
X173971289Y-112162655D01*
X174095344Y-112286710D01*
X174095348Y-112286713D01*
X174244662Y-112378812D01*
X174244664Y-112378813D01*
X174244666Y-112378814D01*
X174411203Y-112433999D01*
X174513992Y-112444500D01*
X176172481Y-112444500D01*
X176239520Y-112464185D01*
X176260162Y-112480819D01*
X177170451Y-113391109D01*
X177170454Y-113391112D01*
X177225673Y-113428008D01*
X177285182Y-113467771D01*
X177285195Y-113467778D01*
X177412667Y-113520578D01*
X177412672Y-113520580D01*
X177412676Y-113520580D01*
X177412677Y-113520581D01*
X177548004Y-113547500D01*
X177548007Y-113547500D01*
X183319007Y-113547500D01*
X184922057Y-113547500D01*
X184922795Y-113547716D01*
X184923535Y-113547509D01*
X184956272Y-113557546D01*
X184989096Y-113567185D01*
X184989598Y-113567765D01*
X184990335Y-113567991D01*
X185012474Y-113594165D01*
X185034851Y-113619989D01*
X185035125Y-113620943D01*
X185035457Y-113621336D01*
X185044996Y-113655317D01*
X185055805Y-113737430D01*
X185045039Y-113806465D01*
X185020547Y-113841294D01*
X183774662Y-115087181D01*
X183713339Y-115120666D01*
X183686981Y-115123500D01*
X177144727Y-115123500D01*
X177077688Y-115103815D01*
X177037340Y-115061501D01*
X177025514Y-115041018D01*
X176930948Y-114877226D01*
X176824850Y-114738956D01*
X176795248Y-114700377D01*
X176795242Y-114700370D01*
X176637629Y-114542757D01*
X176637622Y-114542751D01*
X176460782Y-114407058D01*
X176460780Y-114407057D01*
X176460774Y-114407052D01*
X176267726Y-114295595D01*
X176267722Y-114295593D01*
X176061790Y-114210293D01*
X176061783Y-114210291D01*
X176061781Y-114210290D01*
X175846463Y-114152596D01*
X175846457Y-114152595D01*
X175846452Y-114152594D01*
X175625466Y-114123501D01*
X175625463Y-114123500D01*
X175625457Y-114123500D01*
X175402543Y-114123500D01*
X175402537Y-114123500D01*
X175402533Y-114123501D01*
X175181547Y-114152594D01*
X175181540Y-114152595D01*
X175181537Y-114152596D01*
X175041693Y-114190067D01*
X174966219Y-114210290D01*
X174966209Y-114210293D01*
X174760277Y-114295593D01*
X174760273Y-114295595D01*
X174567226Y-114407052D01*
X174567217Y-114407058D01*
X174390377Y-114542751D01*
X174390370Y-114542757D01*
X174232757Y-114700370D01*
X174232751Y-114700377D01*
X174097058Y-114877217D01*
X174097052Y-114877226D01*
X173985595Y-115070273D01*
X173985593Y-115070277D01*
X173900293Y-115276209D01*
X173900290Y-115276219D01*
X173842597Y-115491534D01*
X173842594Y-115491547D01*
X173813501Y-115712533D01*
X173813500Y-115712549D01*
X173813500Y-115935450D01*
X173813501Y-115935466D01*
X173842594Y-116156452D01*
X173842595Y-116156457D01*
X173842596Y-116156463D01*
X173900290Y-116371780D01*
X173900293Y-116371790D01*
X173985593Y-116577722D01*
X173985595Y-116577726D01*
X174097052Y-116770774D01*
X174097057Y-116770780D01*
X174097058Y-116770782D01*
X174232751Y-116947622D01*
X174232757Y-116947629D01*
X174390370Y-117105242D01*
X174390377Y-117105248D01*
X174430213Y-117135815D01*
X174567226Y-117240948D01*
X174760274Y-117352405D01*
X174966219Y-117437710D01*
X175181537Y-117495404D01*
X175402543Y-117524500D01*
X175402550Y-117524500D01*
X175625450Y-117524500D01*
X175625457Y-117524500D01*
X175846463Y-117495404D01*
X176061781Y-117437710D01*
X176267726Y-117352405D01*
X176460774Y-117240948D01*
X176637624Y-117105247D01*
X176795247Y-116947624D01*
X176930948Y-116770774D01*
X177037340Y-116586499D01*
X177087908Y-116538284D01*
X177144727Y-116524500D01*
X184097496Y-116524500D01*
X184188540Y-116506389D01*
X184232828Y-116497580D01*
X184296569Y-116471177D01*
X184360307Y-116444777D01*
X184360308Y-116444776D01*
X184360311Y-116444775D01*
X184475043Y-116368114D01*
X186609338Y-114233817D01*
X186670661Y-114200333D01*
X186697019Y-114197499D01*
X187107363Y-114197499D01*
X187224753Y-114182046D01*
X187224757Y-114182044D01*
X187224762Y-114182044D01*
X187370841Y-114121536D01*
X187496282Y-114025282D01*
X187592536Y-113899841D01*
X187653044Y-113753762D01*
X187668500Y-113636361D01*
X187668499Y-113357640D01*
X187653044Y-113240238D01*
X187653042Y-113240234D01*
X187644435Y-113219455D01*
X187636965Y-113149986D01*
X187644435Y-113124545D01*
X187650799Y-113109181D01*
X187653044Y-113103762D01*
X187668500Y-112986361D01*
X187668499Y-112707640D01*
X187668099Y-112704605D01*
X187665277Y-112683170D01*
X187653044Y-112590238D01*
X187653042Y-112590234D01*
X187644435Y-112569455D01*
X187636965Y-112499986D01*
X187644435Y-112474545D01*
X187653044Y-112453762D01*
X187668500Y-112336361D01*
X187668499Y-112057640D01*
X187653044Y-111940238D01*
X187653042Y-111940234D01*
X187644435Y-111919455D01*
X187636965Y-111849986D01*
X187644435Y-111824545D01*
X187653044Y-111803762D01*
X187668500Y-111686361D01*
X187668499Y-111407640D01*
X187668499Y-111407638D01*
X187668499Y-111407636D01*
X187653046Y-111290246D01*
X187653044Y-111290239D01*
X187653044Y-111290238D01*
X187592536Y-111144159D01*
X187496282Y-111018718D01*
X187370841Y-110922464D01*
X187224762Y-110861956D01*
X187224760Y-110861955D01*
X187107370Y-110846501D01*
X187107367Y-110846500D01*
X187107361Y-110846500D01*
X187107354Y-110846500D01*
X185603636Y-110846500D01*
X185486246Y-110861953D01*
X185486237Y-110861956D01*
X185340160Y-110922463D01*
X185214718Y-111018718D01*
X185118463Y-111144160D01*
X185057956Y-111290237D01*
X185057955Y-111290239D01*
X185042500Y-111407638D01*
X185042500Y-111686363D01*
X185057953Y-111803753D01*
X185057957Y-111803765D01*
X185066566Y-111824550D01*
X185074033Y-111894019D01*
X185073620Y-111896200D01*
X185071237Y-111908174D01*
X185057956Y-111940238D01*
X185044464Y-112042718D01*
X185043672Y-112046700D01*
X185029281Y-112074205D01*
X185016728Y-112102582D01*
X185013227Y-112104891D01*
X185011282Y-112108609D01*
X184984305Y-112123968D01*
X184958404Y-112141053D01*
X184952831Y-112141888D01*
X184950564Y-112143179D01*
X184945890Y-112142928D01*
X184922056Y-112146500D01*
X184212500Y-112146500D01*
X184145461Y-112126815D01*
X184099706Y-112074011D01*
X184088500Y-112022500D01*
X184088500Y-109053519D01*
X184108185Y-108986480D01*
X184124819Y-108965838D01*
X185546838Y-107543819D01*
X185608161Y-107510334D01*
X185634519Y-107507500D01*
X205779481Y-107507500D01*
X205846520Y-107527185D01*
X205867162Y-107543819D01*
X206781181Y-108457837D01*
X206814666Y-108519160D01*
X206817500Y-108545518D01*
X206817500Y-127997255D01*
X206797815Y-128064294D01*
X206766385Y-128097573D01*
X206670787Y-128167028D01*
X206670782Y-128167032D01*
X206526028Y-128311786D01*
X206405715Y-128477386D01*
X206312781Y-128659776D01*
X206249522Y-128854465D01*
X206217500Y-129056648D01*
X206217500Y-129261351D01*
X206249522Y-129463534D01*
X206312781Y-129658223D01*
X206405715Y-129840613D01*
X206526028Y-130006213D01*
X206670786Y-130150971D01*
X206783700Y-130233006D01*
X206836390Y-130271287D01*
X206952607Y-130330503D01*
X207018776Y-130364218D01*
X207018778Y-130364218D01*
X207018781Y-130364220D01*
X207123137Y-130398127D01*
X207213465Y-130427477D01*
X207314557Y-130443488D01*
X207415648Y-130459500D01*
X207415649Y-130459500D01*
X207620351Y-130459500D01*
X207620352Y-130459500D01*
X207822534Y-130427477D01*
X208017219Y-130364220D01*
X208199610Y-130271287D01*
X208317640Y-130185534D01*
X208365213Y-130150971D01*
X208365215Y-130150968D01*
X208365219Y-130150966D01*
X208509966Y-130006219D01*
X208509968Y-130006215D01*
X208509971Y-130006213D01*
X208562732Y-129933590D01*
X208630287Y-129840610D01*
X208723220Y-129658219D01*
X208786477Y-129463534D01*
X208818500Y-129261352D01*
X208818500Y-129056648D01*
X208791952Y-128889034D01*
X208786477Y-128854465D01*
X208737557Y-128703907D01*
X208723220Y-128659781D01*
X208723218Y-128659778D01*
X208723218Y-128659776D01*
X208661448Y-128538547D01*
X208630287Y-128477390D01*
X208591014Y-128423335D01*
X208509971Y-128311786D01*
X208365217Y-128167032D01*
X208365212Y-128167028D01*
X208269615Y-128097573D01*
X208226949Y-128042243D01*
X208218500Y-127997255D01*
X208218500Y-108135004D01*
X208191581Y-107999677D01*
X208191580Y-107999676D01*
X208191580Y-107999672D01*
X208191578Y-107999667D01*
X208138778Y-107872195D01*
X208138771Y-107872182D01*
X208062115Y-107757459D01*
X208062114Y-107757458D01*
X207964542Y-107659886D01*
X207812156Y-107507500D01*
X206567546Y-106262888D01*
X206567545Y-106262887D01*
X206452807Y-106186222D01*
X206325332Y-106133421D01*
X206325322Y-106133418D01*
X206189996Y-106106500D01*
X206189994Y-106106500D01*
X206189993Y-106106500D01*
X185224007Y-106106500D01*
X185224003Y-106106500D01*
X185115590Y-106128065D01*
X185115589Y-106128065D01*
X185088681Y-106133418D01*
X185088671Y-106133420D01*
X184961190Y-106186224D01*
X184846454Y-106262887D01*
X184846453Y-106262888D01*
X183576457Y-107532886D01*
X182843885Y-108265457D01*
X182843880Y-108265463D01*
X182833283Y-108281325D01*
X182833281Y-108281329D01*
X182767228Y-108380182D01*
X182767221Y-108380195D01*
X182714421Y-108507667D01*
X182714418Y-108507677D01*
X182687500Y-108643004D01*
X182687500Y-112022500D01*
X182667815Y-112089539D01*
X182615011Y-112135294D01*
X182563500Y-112146500D01*
X177958519Y-112146500D01*
X177891480Y-112126815D01*
X177870838Y-112110181D01*
X177250819Y-111490162D01*
X177217334Y-111428839D01*
X177214500Y-111402481D01*
X177214500Y-109743997D01*
X177214499Y-109743984D01*
X177203999Y-109641204D01*
X177203999Y-109641203D01*
X177148814Y-109474666D01*
X177090932Y-109380826D01*
X177056713Y-109325348D01*
X177056710Y-109325344D01*
X176932655Y-109201289D01*
X176932651Y-109201286D01*
X176783337Y-109109187D01*
X176783335Y-109109186D01*
X176681975Y-109075599D01*
X176616797Y-109054001D01*
X176616795Y-109054000D01*
X176514015Y-109043500D01*
X176514008Y-109043500D01*
X174513992Y-109043500D01*
X174513984Y-109043500D01*
X174411204Y-109054000D01*
X174411203Y-109054001D01*
X174244664Y-109109186D01*
X174244662Y-109109187D01*
X174095348Y-109201286D01*
X174095344Y-109201289D01*
X173971289Y-109325344D01*
X173971286Y-109325348D01*
X173879187Y-109474662D01*
X173879186Y-109474664D01*
X173824001Y-109641203D01*
X173824000Y-109641204D01*
X173813500Y-109743984D01*
X167378500Y-109743984D01*
X167378500Y-99954711D01*
X187760500Y-99954711D01*
X187760500Y-100197288D01*
X187792161Y-100437785D01*
X187854947Y-100672104D01*
X187947773Y-100896205D01*
X187947776Y-100896212D01*
X188069064Y-101106289D01*
X188069066Y-101106292D01*
X188069067Y-101106293D01*
X188216733Y-101298736D01*
X188216739Y-101298743D01*
X188388256Y-101470260D01*
X188388262Y-101470265D01*
X188580711Y-101617936D01*
X188790788Y-101739224D01*
X189014900Y-101832054D01*
X189249211Y-101894838D01*
X189429586Y-101918584D01*
X189489711Y-101926500D01*
X189489712Y-101926500D01*
X189732289Y-101926500D01*
X189780388Y-101920167D01*
X189972789Y-101894838D01*
X190207100Y-101832054D01*
X190431212Y-101739224D01*
X190641289Y-101617936D01*
X190833738Y-101470265D01*
X191005265Y-101298738D01*
X191152936Y-101106289D01*
X191274224Y-100896212D01*
X191367054Y-100672100D01*
X191429838Y-100437789D01*
X191461500Y-100197288D01*
X191461500Y-99954712D01*
X191429838Y-99714211D01*
X191367054Y-99479900D01*
X191274224Y-99255788D01*
X191152936Y-99045711D01*
X191005265Y-98853262D01*
X191005260Y-98853256D01*
X190833743Y-98681739D01*
X190833736Y-98681733D01*
X190641293Y-98534067D01*
X190641292Y-98534066D01*
X190641289Y-98534064D01*
X190431212Y-98412776D01*
X190431205Y-98412773D01*
X190207104Y-98319947D01*
X189972785Y-98257161D01*
X189732289Y-98225500D01*
X189732288Y-98225500D01*
X189489712Y-98225500D01*
X189489711Y-98225500D01*
X189249214Y-98257161D01*
X189014895Y-98319947D01*
X188790794Y-98412773D01*
X188790785Y-98412777D01*
X188580706Y-98534067D01*
X188388263Y-98681733D01*
X188388256Y-98681739D01*
X188216739Y-98853256D01*
X188216733Y-98853263D01*
X188069067Y-99045706D01*
X187947777Y-99255785D01*
X187947773Y-99255794D01*
X187854947Y-99479895D01*
X187792161Y-99714214D01*
X187760500Y-99954711D01*
X167378500Y-99954711D01*
X167378500Y-94096500D01*
X167398185Y-94029461D01*
X167450989Y-93983706D01*
X167502500Y-93972500D01*
X211973500Y-93972500D01*
X212040539Y-93992185D01*
G37*
%TD.AperFunction*%
%TD*%
D22*
X166878000Y-93472000D02*
X212598000Y-93472000D01*
X212598000Y-155448000D01*
X166878000Y-155448000D01*
X166878000Y-93472000D01*
M02*
