M48
; DRILL file {KiCad 9.0.7} date 2026-03-12T09:39:25+0100
; FORMAT={-:-/ absolute / metric / decimal}
; #@! TF.CreationDate,2026-03-12T09:39:25+01:00
; #@! TF.GenerationSoftware,Kicad,Pcbnew,9.0.7
; #@! TF.FileFunction,MixedPlating,1,2
FMAT,2
METRIC
; #@! TA.AperFunction,Plated,PTH,ViaDrill
T1C0.800
; #@! TA.AperFunction,Plated,PTH,ComponentDrill
T2C0.800
; #@! TA.AperFunction,Plated,PTH,ComponentDrill
T3C1.000
; #@! TA.AperFunction,NonPlated,NPTH,ComponentDrill
T4C2.100
%
G90
G05
T1
X21.59Y-35.56
X29.21Y-57.15
X78.74Y-22.86
X81.28Y-81.28
X93.778Y-38.1
X97.79Y-81.28
T2
X16.86Y-45.262
X17.36Y-60.502
X17.36Y-68.122
X17.4Y-52.882
X18.86Y-45.262
X19.36Y-60.502
X19.36Y-68.122
X19.4Y-52.882
X20.86Y-45.262
X21.36Y-60.502
X21.36Y-68.122
X21.4Y-52.882
X22.86Y-45.262
X23.36Y-60.502
X23.36Y-68.122
X23.4Y-52.882
X33.02Y-47.802
X33.02Y-50.342
X33.02Y-52.882
X33.02Y-55.422
X33.02Y-57.962
X33.02Y-60.502
X33.02Y-63.042
X33.02Y-65.582
X40.64Y-47.802
X40.64Y-50.342
X40.64Y-52.882
X40.64Y-55.422
X40.64Y-57.962
X40.64Y-60.502
X40.64Y-63.042
X40.64Y-65.582
X43.18Y-81.28
X43.18Y-83.28
X43.18Y-85.28
X43.18Y-87.28
X53.34Y-92.602
X53.34Y-94.602
X53.34Y-96.602
X53.34Y-98.602
X62.64Y-21.94
X62.64Y-23.94
X62.64Y-25.94
X62.64Y-27.94
X71.12Y-21.94
X71.12Y-23.94
X71.12Y-25.94
X71.12Y-27.94
X71.12Y-92.602
X71.12Y-94.602
X71.12Y-96.602
X71.12Y-98.602
X80.36Y-60.502
X81.078Y-27.94
X81.078Y-29.94
X81.078Y-31.94
X81.078Y-33.94
X82.36Y-60.502
X84.36Y-60.502
X86.318Y-68.538
X86.36Y-60.502
X86.36Y-96.52
X88.698Y-26.48
X88.698Y-28.48
X88.698Y-30.48
X88.698Y-32.48
X93.06Y-47.802
X94.52Y-55.422
X95.06Y-47.802
X96.52Y-55.422
X96.52Y-96.52
X97.06Y-47.802
X98.52Y-55.422
X99.06Y-47.802
X100.33Y-88.9
X100.33Y-99.06
X100.52Y-55.422
X101.558Y-68.538
X104.14Y-73.66
X104.14Y-83.82
T3
X50.64Y-38.142
X50.64Y-40.682
X50.64Y-43.222
X50.64Y-45.762
X50.64Y-48.302
X50.64Y-50.842
X50.64Y-53.382
X50.64Y-55.922
X50.64Y-58.462
X50.64Y-61.002
X50.64Y-63.542
X50.64Y-66.082
X50.64Y-68.622
X50.64Y-71.162
X50.64Y-73.702
X50.64Y-76.242
X73.478Y-38.13
X73.478Y-40.67
X73.478Y-43.21
X73.478Y-45.75
X73.478Y-48.29
X73.478Y-50.83
X73.478Y-53.37
X73.478Y-55.91
X73.478Y-58.45
X73.478Y-60.99
X73.478Y-63.53
X73.478Y-66.07
X73.478Y-68.61
X73.478Y-71.15
X73.478Y-73.69
X73.478Y-76.23
T4
X20.32Y-24.13
X20.32Y-96.52
X105.41Y-24.13
X105.41Y-96.52
M30
